<svg version="1.2" xmlns="http://www.w3.org/2000/svg" viewBox="0 0 1080 1080" width="1080" height="1080">
	<title>ClassDiagram-svg</title>
	<style>
		.s0 { fill: #58f329;stroke: #000000;stroke-linejoin: round } 
		.s1 { fill: #b300b3;stroke: #000000;stroke-linejoin: round } 
		.s2 { fill: #e92062;stroke: #000000;stroke-linejoin: round } 
		.s3 { fill: #e92020;stroke: #000000;stroke-linejoin: round } 
		.s4 { fill: #ffae20;stroke: #000000;stroke-linejoin: round } 
		.s5 { fill: #4393ff;stroke: #000000;stroke-linejoin: round } 
		.s6 { fill: #8f8f8f;stroke: #000000;stroke-linejoin: round } 
		.s7 { fill: #000000 } 
		.s8 { fill: #e92062;stroke: #000000 } 
		.s9 { fill: #e92020;stroke: #000000 } 
		.s10 { fill: #ffae20;stroke: #000000 } 
		.s11 { fill: #58f329;stroke: #000000 } 
		.s12 { fill: #8f8f8f;stroke: #000000 } 
		.s13 { fill: #b300b3;stroke: #000000 } 
		.s14 { fill: #4393ff;stroke: #000000 } 
	</style>
	<g id="ViewLayer_LineSet">
		<g id="strokes">
			<path id="Layer" class="s0" d="m293 721.7h1 1 1 1 1 1 1 1 1 1 1 1 1 1 1 1 1 1 1 1 1 1 1 1 1 1 1 1 1 1 1 1 1 1 1 1 1 1 1 1 1 1 1 1 1 0.7v-1-1-1-1-1-1-1-1-1-1-1-1-1-1-1-1-1-1-1-1-1-1-1-1-1-1-1-1-1-1-1-1-1-1-1-1-1-1-1-1-1-1-1-1-1-0.6h-1-1-1-1-1-1-1-1-1-1-1-1-1-1-1-1-1-1-1-1-1-1-1-1-1-1-1-1-1-1-1-1-1-1-1-1-1-1-1-1-1-1-1-1-1-0.7v1 1 1 1 1 1 1 1 1 1 1 1 1 1 1 1 1 1 1 1 1 1 1 1 1 1 1 1 1 1 1 1 1 1 1 1 1 1 1 1 1 1 1 1 1z"/>
			<path id="Layer" class="s0" d="m326.8 896.8h1 1 1 1 1 1 1 1 1 1 1 1 1 1 1 1 1 1 1 1 1 1 1 1 1 1 1 1 1 1 1 1 1 1 1 1 1 1 1 1 1 1 1 1 1 0.6v-1-1-1-1-1-1-1-1-1-1-1-1-1-1-1-1-1-1-1-1-1-1-1-1-1-1-1-1-1-1-1-1-1-1-1-1-1-1-1-1-1-1-1-1-1-0.6h-1-1-1-1-1-1-1-1-1-1-1-1-1-1-1-1-1-1-1-1-1-1-1-1-1-1-1-1-1-1-1-1-1-1-1-1-1-1-1-1-1-1-1-1-1-0.6v1 1 1 1 1 1 1 1 1 1 1 1 1 1 1 1 1 1 1 1 1 1 1 1 1 1 1 1 1 1 1 1 1 1 1 1 1 1 1 1 1 1 1 1 1z"/>
			<path id="Layer" class="s0" d="m407.4 874h1 1 1 1 1 1 1 1 1 1 1 1 1 1 1 1 1 1 1 1 1 1 1 1 1 1 1 1 1 1 1 1 1 1 1 1 1 1 1 1 1 1 1 1 1 0.6v-1-1-1-1-1-1-1-1-1-1-1-1-1-1-1-1-1-1-1-1-1-1-1-1-1-1-1-1-1-1-1-1-1-1-1-1-1-1-1-1-1-1-1-1-1-0.7h-1-1-1-1-1-1-1-1-1-1-1-1-1-1-1-1-1-1-1-1-1-1-1-1-1-1-1-1-1-1-1-1-1-1-1-1-1-1-1-1-1-1-1-1-1-0.6v1 1 1 1 1 1 1 1 1 1 1 1 1 1 1 1 1 1 1 1 1 1 1 1 1 1 1 1 1 1 1 1 1 1 1 1 1 1 1 1 1 1 1 1 1z"/>
			<path id="Layer" class="s0" d="m406.9 929.6h1 1 1 1 1 1 1 1 1 1 1 1 1 1 1 1 1 1 1 1 1 1 1 1 1 1 1 1 1 1 1 1 1 1 1 1 1 1 1 1 1 1 1 1 1 0.6v-1-1-1-1-1-1-1-1-1-1-1-1-1-1-1-1-1-1-1-1-1-1-1-1-1-1-1-1-1-1-1-1-1-1-1-1-1-1-1-1-1-1-1-1-1-0.6h-1-1-1-1-1-1-1-1-1-1-1-1-1-1-1-1-1-1-1-1-1-1-1-1-1-1-1-1-1-1-1-1-1-1-1-1-1-1-1-1-1-1-1-1-1-0.6v1 1 1 1 1 1 1 1 1 1 1 1 1 1 1 1 1 1 1 1 1 1 1 1 1 1 1 1 1 1 1 1 1 1 1 1 1 1 1 1 1 1 1 1 1z"/>
			<path id="Layer" class="s0" d="m200.5 897.4h1 1 1 1 1 1 1 1 1 1 1 1 1 1 1 1 1 1 1 1 1 1 1 1 1 1 1 1 1 1 1 1 1 1 1 1 1 1 1 1 1 1 1 1 1 0.7v-1-1-1-1-1-1-1-1-1-1-1-1-1-1-1-1-1-1-1-1-1-1-1-1-1-1-1-1-1-1-1-1-1-1-1-1-1-1-1-1-1-1-1-1-1-0.7h-1-1-1-1-1-1-1-1-1-1-1-1-1-1-1-1-1-1-1-1-1-1-1-1-1-1-1-1-1-1-1-1-1-1-1-1-1-1-1-1-1-1-1-1-1-0.7v1 1 1 1 1 1 1 1 1 1 1 1 1 1 1 1 1 1 1 1 1 1 1 1 1 1 1 1 1 1 1 1 1 1 1 1 1 1 1 1 1 1 1 1 1z"/>
			<path id="Layer" class="s0" d="m124.1 853.2h1 1 1 1 1 1 1 1 1 1 1 1 1 1 1 1 1 1 1 1 1 1 1 1 1 1 1 1 1 1 1 1 1 1 1 1 1 1 1 1 1 1 1 1 1 0.7v-1-1-1-1-1-1-1-1-1-1-1-1-1-1-1-1-1-1-1-1-1-1-1-1-1-1-1-1-1-1-1-1-1-1-1-1-1-1-1-1-1-1-1-1-1-0.6h-1-1-1-1-1-1-1-1-1-1-1-1-1-1-1-1-1-1-1-1-1-1-1-1-1-1-1-1-1-1-1-1-1-1-1-1-1-1-1-1-1-1-1-1-1-0.7v1 1 1 1 1 1 1 1 1 1 1 1 1 1 1 1 1 1 1 1 1 1 1 1 1 1 1 1 1 1 1 1 1 1 1 1 1 1 1 1 1 1 1 1 1z"/>
			<path id="Layer" class="s0" d="m124.1 901.5h1 1 1 1 1 1 1 1 1 1 1 1 1 1 1 1 1 1 1 1 1 1 1 1 1 1 1 1 1 1 1 1 1 1 1 1 1 1 1 1 1 1 1 1 1 0.7v-1-1-1-1-1-1-1-1-1-1-1-1-1-1-1-1-1-1-1-1-1-1-1-1-1-1-1-1-1-1-1-1-1-1-1-1-1-1-1-1-1-1-1-1-1-0.6h-1-1-1-1-1-1-1-1-1-1-1-1-1-1-1-1-1-1-1-1-1-1-1-1-1-1-1-1-1-1-1-1-1-1-1-1-1-1-1-1-1-1-1-1-1-0.7v1 1 1 1 1 1 1 1 1 1 1 1 1 1 1 1 1 1 1 1 1 1 1 1 1 1 1 1 1 1 1 1 1 1 1 1 1 1 1 1 1 1 1 1 1z"/>
			<path id="Layer" class="s0" d="m200.5 992.2h1 1 1 1 1 1 1 1 1 1 1 1 1 1 1 1 1 1 1 1 1 1 1 1 1 1 1 1 1 1 1 1 1 1 1 1 1 1 1 1 1 1 1 1 1 0.7v-1-1-1-1-1-1-1-1-1-1-1-1-1-1-1-1-1-1-1-1-1-1-1-1-1-1-1-1-1-1-1-1-1-1-1-1-1-1-1-1-1-1-1-1-1-0.6h-1-1-1-1-1-1-1-1-1-1-1-1-1-1-1-1-1-1-1-1-1-1-1-1-1-1-1-1-1-1-1-1-1-1-1-1-1-1-1-1-1-1-1-1-1-0.7v1 1 1 1 1 1 1 1 1 1 1 1 1 1 1 1 1 1 1 1 1 1 1 1 1 1 1 1 1 1 1 1 1 1 1 1 1 1 1 1 1 1 1 1 1z"/>
			<path id="Layer" class="s0" d="m200.5 1054.9h1 1 1 1 1 1 1 1 1 1 1 1 1 1 1 1 1 1 1 1 1 1 1 1 1 1 1 1 1 1 1 1 1 1 1 1 1 1 1 1 1 1 1 1 1 0.7v-1-1-1-1-1-1-1-1-1-1-1-1-1-1-1-1-1-1-1-1-1-1-1-1-1-1-1-1-1-1-1-1-1-1-1-1-1-1-1-1-1-1-1-1-1-0.6h-1-1-1-1-1-1-1-1-1-1-1-1-1-1-1-1-1-1-1-1-1-1-1-1-1-1-1-1-1-1-1-1-1-1-1-1-1-1-1-1-1-1-1-1-1-0.7v1 1 1 1 1 1 1 1 1 1 1 1 1 1 1 1 1 1 1 1 1 1 1 1 1 1 1 1 1 1 1 1 1 1 1 1 1 1 1 1 1 1 1 1 1z"/>
			<path id="Layer" class="s0" d="m259.2 992.2h1 1 1 1 1 1 1 1 1 1 1 1 1 1 1 1 1 1 1 1 1 1 1 1 1 1 1 1 1 1 1 1 1 1 1 1 1 1 1 1 1 1 1 1 1 0.6v-1-1-1-1-1-1-1-1-1-1-1-1-1-1-1-1-1-1-1-1-1-1-1-1-1-1-1-1-1-1-1-1-1-1-1-1-1-1-1-1-1-1-1-1-1-0.6h-1-1-1-1-1-1-1-1-1-1-1-1-1-1-1-1-1-1-1-1-1-1-1-1-1-1-1-1-1-1-1-1-1-1-1-1-1-1-1-1-1-1-1-1-1-0.6v1 1 1 1 1 1 1 1 1 1 1 1 1 1 1 1 1 1 1 1 1 1 1 1 1 1 1 1 1 1 1 1 1 1 1 1 1 1 1 1 1 1 1 1 1z"/>
			<path id="Layer" class="s0" d="m259.2 1054.9h1 1 1 1 1 1 1 1 1 1 1 1 1 1 1 1 1 1 1 1 1 1 1 1 1 1 1 1 1 1 1 1 1 1 1 1 1 1 1 1 1 1 1 1 1 0.6v-1-1-1-1-1-1-1-1-1-1-1-1-1-1-1-1-1-1-1-1-1-1-1-1-1-1-1-1-1-1-1-1-1-1-1-1-1-1-1-1-1-1-1-1-1-0.6h-1-1-1-1-1-1-1-1-1-1-1-1-1-1-1-1-1-1-1-1-1-1-1-1-1-1-1-1-1-1-1-1-1-1-1-1-1-1-1-1-1-1-1-1-1-0.6v1 1 1 1 1 1 1 1 1 1 1 1 1 1 1 1 1 1 1 1 1 1 1 1 1 1 1 1 1 1 1 1 1 1 1 1 1 1 1 1 1 1 1 1 1z"/>
			<path id="Layer" class="s0" d="m136.8 992.2h1 1 1 1 1 1 1 1 1 1 1 1 1 1 1 1 1 1 1 1 1 1 1 1 1 1 1 1 1 1 1 1 1 1 1 1 1 1 1 1 1 1 1 1 1 0.6v-1-1-1-1-1-1-1-1-1-1-1-1-1-1-1-1-1-1-1-1-1-1-1-1-1-1-1-1-1-1-1-1-1-1-1-1-1-1-1-1-1-1-1-1-1-0.6h-1-1-1-1-1-1-1-1-1-1-1-1-1-1-1-1-1-1-1-1-1-1-1-1-1-1-1-1-1-1-1-1-1-1-1-1-1-1-1-1-1-1-1-1-1-0.6v1 1 1 1 1 1 1 1 1 1 1 1 1 1 1 1 1 1 1 1 1 1 1 1 1 1 1 1 1 1 1 1 1 1 1 1 1 1 1 1 1 1 1 1 1z"/>
			<path id="Layer" class="s0" d="m193.6 610.1h1 1 1 1 1 1 1 1 1 1 1 1 1 1 1 1 1 1 1 1 1 1 1 1 1 1 1 1 1 1 1 1 1 1 1 1 1 1 1 1 1 1 1 1 1 0.6v1 1 1 1 1 1 1 1 1 1 1 1 1 1 1 1 1 0.5h-1-1-1-1-1-1-1-1-1-1-1-1-1-1-1-1-1-1-1-1-1-1-1-1-1-1-1-1-1-1-1-1-1-1-1-1-1-1-1-1-1-1-1-1-1-0.6v-1-1-1-1-1-1-1-1-1-1-1-1-1-1-1-1-1z"/>
			<path id="Layer" class="s0" d="m193.6 628.9h1 1 1 1 1 1 1 1 1 1 1 1 1 1 1 1 1 1 1 1 1 1 1 1 1 1 1 1 1 1 1 1 1 1 1 1 1 1 1 1 1 1 1 1 1 0.6v1 1 1 1 1 1 1 1 1 1 1 1 1 1 1 1 1 0.5h-1-1-1-1-1-1-1-1-1-1-1-1-1-1-1-1-1-1-1-1-1-1-1-1-1-1-1-1-1-1-1-1-1-1-1-1-1-1-1-1-1-1-1-1-1-0.6v-1-1-1-1-1-1-1-1-1-1-1-1-1-1-1-1-1z"/>
			<path id="Layer" class="s0" d="m193.6 647.8h1 1 1 1 1 1 1 1 1 1 1 1 1 1 1 1 1 1 1 1 1 1 1 1 1 1 1 1 1 1 1 1 1 1 1 1 1 1 1 1 1 1 1 1 1 0.6v1 1 1 1 1 1 1 1 1 1 1 1 1 1 1 1 1 0.4h-1-1-1-1-1-1-1-1-1-1-1-1-1-1-1-1-1-1-1-1-1-1-1-1-1-1-1-1-1-1-1-1-1-1-1-1-1-1-1-1-1-1-1-1-1-0.6v-1-1-1-1-1-1-1-1-1-1-1-1-1-1-1-1-1z"/>
			<path id="Layer" class="s0" d="m193.6 666.6h1 1 1 1 1 1 1 1 1 1 1 1 1 1 1 1 1 1 1 1 1 1 1 1 1 1 1 1 1 1 1 1 1 1 1 1 1 1 1 1 1 1 1 1 1 0.6v1 1 1 1 1 1 1 1 1 1 1 1 1 1 1 1 1 0.4h-1-1-1-1-1-1-1-1-1-1-1-1-1-1-1-1-1-1-1-1-1-1-1-1-1-1-1-1-1-1-1-1-1-1-1-1-1-1-1-1-1-1-1-1-1-0.6v-1-1-1-1-1-1-1-1-1-1-1-1-1-1-1-1-1z"/>
			<path id="Layer" class="s0" d="m193.6 685.4h1 1 1 1 1 1 1 1 1 1 1 1 1 1 1 1 1 1 1 1 1 1 1 1 1 1 1 1 1 1 1 1 1 1 1 1 1 1 1 1 1 1 1 1 1 0.6v1 1 1 1 1 1 1 1 1 1 1 1 1 1 1 1 1 0.5h-1-1-1-1-1-1-1-1-1-1-1-1-1-1-1-1-1-1-1-1-1-1-1-1-1-1-1-1-1-1-1-1-1-1-1-1-1-1-1-1-1-1-1-1-1-0.6v-1-1-1-1-1-1-1-1-1-1-1-1-1-1-1-1-1z"/>
			<path id="Layer" class="s0" d="m193.6 704.2h1 1 1 1 1 1 1 1 1 1 1 1 1 1 1 1 1 1 1 1 1 1 1 1 1 1 1 1 1 1 1 1 1 1 1 1 1 1 1 1 1 1 1 1 1 0.6v1 1 1 1 1 1 1 1 1 1 1 1 1 1 1 1 1 0.5h-1-1-1-1-1-1-1-1-1-1-1-1-1-1-1-1-1-1-1-1-1-1-1-1-1-1-1-1-1-1-1-1-1-1-1-1-1-1-1-1-1-1-1-1-1-0.6v-1-1-1-1-1-1-1-1-1-1-1-1-1-1-1-1-1z"/>
			<path id="Layer" class="s0" d="m193.6 723h1 1 1 1 1 1 1 1 1 1 1 1 1 1 1 1 1 1 1 1 1 1 1 1 1 1 1 1 1 1 1 1 1 1 1 1 1 1 1 1 1 1 1 1 1 0.6v1 1 1 1 1 1 1 1 1 1 1 1 1 1 1 1 1 0.5h-1-1-1-1-1-1-1-1-1-1-1-1-1-1-1-1-1-1-1-1-1-1-1-1-1-1-1-1-1-1-1-1-1-1-1-1-1-1-1-1-1-1-1-1-1-0.6v-1-1-1-1-1-1-1-1-1-1-1-1-1-1-1-1-1z"/>
			<path id="Layer" class="s0" d="m193.6 741.9h1 1 1 1 1 1 1 1 1 1 1 1 1 1 1 1 1 1 1 1 1 1 1 1 1 1 1 1 1 1 1 1 1 1 1 1 1 1 1 1 1 1 1 1 1 0.6v1 1 1 1 1 1 1 1 1 1 1 1 1 1 1 1 1 0.4h-1-1-1-1-1-1-1-1-1-1-1-1-1-1-1-1-1-1-1-1-1-1-1-1-1-1-1-1-1-1-1-1-1-1-1-1-1-1-1-1-1-1-1-1-1-0.6v-1-1-1-1-1-1-1-1-1-1-1-1-1-1-1-1-1z"/>
			<path id="Layer" class="s0" d="m193.6 760.7h1 1 1 1 1 1 1 1 1 1 1 1 1 1 1 1 1 1 1 1 1 1 1 1 1 1 1 1 1 1 1 1 1 1 1 1 1 1 1 1 1 1 1 1 1 0.6v1 1 1 1 1 1 1 1 1 1 1 1 1 1 1 1 1 0.5h-1-1-1-1-1-1-1-1-1-1-1-1-1-1-1-1-1-1-1-1-1-1-1-1-1-1-1-1-1-1-1-1-1-1-1-1-1-1-1-1-1-1-1-1-1-0.6v-1-1-1-1-1-1-1-1-1-1-1-1-1-1-1-1-1z"/>
			<path id="Layer" class="s0" d="m193.6 779.5h1 1 1 1 1 1 1 1 1 1 1 1 1 1 1 1 1 1 1 1 1 1 1 1 1 1 1 1 1 1 1 1 1 1 1 1 1 1 1 1 1 1 1 1 1 0.6v1 1 1 1 1 1 1 1 1 1 1 1 1 1 1 1 1 0.5h-1-1-1-1-1-1-1-1-1-1-1-1-1-1-1-1-1-1-1-1-1-1-1-1-1-1-1-1-1-1-1-1-1-1-1-1-1-1-1-1-1-1-1-1-1-0.6v-1-1-1-1-1-1-1-1-1-1-1-1-1-1-1-1-1z"/>
			<path id="Layer" class="s0" d="m193.6 798.3h1 1 1 1 1 1 1 1 1 1 1 1 1 1 1 1 1 1 1 1 1 1 1 1 1 1 1 1 1 1 1 1 1 1 1 1 1 1 1 1 1 1 1 1 1 0.6v1 1 1 1 1 1 1 1 1 1 1 1 1 1 1 1 1 0.5h-1-1-1-1-1-1-1-1-1-1-1-1-1-1-1-1-1-1-1-1-1-1-1-1-1-1-1-1-1-1-1-1-1-1-1-1-1-1-1-1-1-1-1-1-1-0.6v-1-1-1-1-1-1-1-1-1-1-1-1-1-1-1-1-1z"/>
			<path id="Layer" class="s1" d="m482.1 735.7h1 1 1 1 1 1 1 1 1 1 1 1 1 1 1 1 1 1 1 1 1 1 1 1 1 1 1 1 1 1 1 1 1 1 1 1 1 1 1 1 1 1 1 1 1 0.6v-1-1-1-1-1-1-1-1-1-1-1-1-1-1-1-1-1-1-1-1-1-1-1-1-1-1-1-1-1-1-1-1-1-1-1-1-1-1-1-1-1-1-1-1-1-0.6h-1-1-1-1-1-1-1-1-1-1-1-1-1-1-1-1-1-1-1-1-1-1-1-1-1-1-1-1-1-1-1-1-1-1-1-1-1-1-1-1-1-1-1-1-1-0.6v1 1 1 1 1 1 1 1 1 1 1 1 1 1 1 1 1 1 1 1 1 1 1 1 1 1 1 1 1 1 1 1 1 1 1 1 1 1 1 1 1 1 1 1 1z"/>
			<path id="Layer" class="s1" d="m482.1 801.5h1 1 1 1 1 1 1 1 1 1 1 1 1 1 1 1 1 1 1 1 1 1 1 1 1 1 1 1 1 1 1 1 1 1 1 1 1 1 1 1 1 1 1 1 1 0.6v-1-1-1-1-1-1-1-1-1-1-1-1-1-1-1-1-1-1-1-1-1-1-1-1-1-1-1-1-1-1-1-1-1-1-1-1-1-1-1-1-1-1-1-1-1-0.6h-1-1-1-1-1-1-1-1-1-1-1-1-1-1-1-1-1-1-1-1-1-1-1-1-1-1-1-1-1-1-1-1-1-1-1-1-1-1-1-1-1-1-1-1-1-0.6v1 1 1 1 1 1 1 1 1 1 1 1 1 1 1 1 1 1 1 1 1 1 1 1 1 1 1 1 1 1 1 1 1 1 1 1 1 1 1 1 1 1 1 1 1z"/>
			<path id="Layer" class="s1" d="m482.1 676.5h1 1 1 1 1 1 1 1 1 1 1 1 1 1 1 1 1 1 1 1 1 1 1 1 1 1 1 1 1 1 1 1 1 1 1 1 1 1 1 1 1 1 1 1 1 0.6v-1-1-1-1-1-1-1-1-1-1-1-1-1-1-1-1-1-1-1-1-1-1-1-1-1-1-1-1-1-1-1-1-1-1-1-1-1-1-1-1-1-1-1-1-1-0.6h-1-1-1-1-1-1-1-1-1-1-1-1-1-1-1-1-1-1-1-1-1-1-1-1-1-1-1-1-1-1-1-1-1-1-1-1-1-1-1-1-1-1-1-1-1-0.6v1 1 1 1 1 1 1 1 1 1 1 1 1 1 1 1 1 1 1 1 1 1 1 1 1 1 1 1 1 1 1 1 1 1 1 1 1 1 1 1 1 1 1 1 1z"/>
			<path id="Layer" class="s1" d="m482.1 621.5h1 1 1 1 1 1 1 1 1 1 1 1 1 1 1 1 1 1 1 1 1 1 1 1 1 1 1 1 1 1 1 1 1 1 1 1 1 1 1 1 1 1 1 1 1 0.6v-1-1-1-1-1-1-1-1-1-1-1-1-1-1-1-1-1-1-1-1-1-1-1-1-1-1-1-1-1-1-1-1-1-1-1-1-1-1-1-1-1-1-1-1-1-0.6h-1-1-1-1-1-1-1-1-1-1-1-1-1-1-1-1-1-1-1-1-1-1-1-1-1-1-1-1-1-1-1-1-1-1-1-1-1-1-1-1-1-1-1-1-1-0.6v1 1 1 1 1 1 1 1 1 1 1 1 1 1 1 1 1 1 1 1 1 1 1 1 1 1 1 1 1 1 1 1 1 1 1 1 1 1 1 1 1 1 1 1 1z"/>
			<path id="Layer" class="s1" d="m482.9 483.7h1 1 1 1 1 1 1 1 1 1 1 1 1 1 1 1 1 1 1 1 1 1 1 1 1 1 1 1 1 1 1 1 1 1 1 1 1 1 1 1 1 1 1 1 1 0.7v-1-1-1-1-1-1-1-1-1-1-1-1-1-1-1-1-1-1-1-1-1-1-1-1-1-1-1-1-1-1-1-1-1-1-1-1-1-1-1-1-1-1-1-1-1-0.6h-1-1-1-1-1-1-1-1-1-1-1-1-1-1-1-1-1-1-1-1-1-1-1-1-1-1-1-1-1-1-1-1-1-1-1-1-1-1-1-1-1-1-1-1-1-0.7v1 1 1 1 1 1 1 1 1 1 1 1 1 1 1 1 1 1 1 1 1 1 1 1 1 1 1 1 1 1 1 1 1 1 1 1 1 1 1 1 1 1 1 1 1z"/>
			<path id="Layer" class="s1" d="m562 475.2h1 1 1 1 1 1 1 1 1 1 1 1 1 1 1 1 1 1 1 1 1 1 1 1 1 1 1 1 1 1 1 1 1 1 1 1 1 1 1 1 1 1 1 1 1 0.6v-1-1-1-1-1-1-1-1-1-1-1-1-1-1-1-1-1-1-1-1-1-1-1-1-1-1-1-1-1-1-1-1-1-1-1-1-1-1-1-1-1-1-1-1-1-0.6h-1-1-1-1-1-1-1-1-1-1-1-1-1-1-1-1-1-1-1-1-1-1-1-1-1-1-1-1-1-1-1-1-1-1-1-1-1-1-1-1-1-1-1-1-1-0.6v1 1 1 1 1 1 1 1 1 1 1 1 1 1 1 1 1 1 1 1 1 1 1 1 1 1 1 1 1 1 1 1 1 1 1 1 1 1 1 1 1 1 1 1 1z"/>
			<path id="Layer" class="s1" d="m611.3 496.9h1 1 1 1 1 1 1 1 1 1 1 1 1 1 1 1 1 1 1 1 1 1 1 1 1 1 1 1 1 1 1 1 1 1 1 1 1 1 1 1 1 1 1 1 1 0.6v-1-1-1-1-1-1-1-1-1-1-1-1-1-1-1-1-1-1-1-1-1-1-1-1-1-1-1-1-1-1-1-1-1-1-1-1-1-1-1-1-1-1-1-1-1-0.6h-1-1-1-1-1-1-1-1-1-1-1-1-1-1-1-1-1-1-1-1-1-1-1-1-1-1-1-1-1-1-1-1-1-1-1-1-1-1-1-1-1-1-1-1-1-0.6v1 1 1 1 1 1 1 1 1 1 1 1 1 1 1 1 1 1 1 1 1 1 1 1 1 1 1 1 1 1 1 1 1 1 1 1 1 1 1 1 1 1 1 1 1z"/>
			<path id="Layer" class="s1" d="m644.6 549.1h1 1 1 1 1 1 1 1 1 1 1 1 1 1 1 1 1 1 1 1 1 1 1 1 1 1 1 1 1 1 1 1 1 1 1 1 1 1 1 1 1 1 1 1 1 0.6v-1-1-1-1-1-1-1-1-1-1-1-1-1-1-1-1-1-1-1-1-1-1-1-1-1-1-1-1-1-1-1-1-1-1-1-1-1-1-1-1-1-1-1-1-1-0.7h-1-1-1-1-1-1-1-1-1-1-1-1-1-1-1-1-1-1-1-1-1-1-1-1-1-1-1-1-1-1-1-1-1-1-1-1-1-1-1-1-1-1-1-1-1-0.6v1 1 1 1 1 1 1 1 1 1 1 1 1 1 1 1 1 1 1 1 1 1 1 1 1 1 1 1 1 1 1 1 1 1 1 1 1 1 1 1 1 1 1 1 1z"/>
			<path id="Layer" class="s1" d="m666.5 609.1h1 1 1 1 1 1 1 1 1 1 1 1 1 1 1 1 1 1 1 1 1 1 1 1 1 1 1 1 1 1 1 1 1 1 1 1 1 1 1 1 1 1 1 1 1 0.6v-1-1-1-1-1-1-1-1-1-1-1-1-1-1-1-1-1-1-1-1-1-1-1-1-1-1-1-1-1-1-1-1-1-1-1-1-1-1-1-1-1-1-1-1-1-0.6h-1-1-1-1-1-1-1-1-1-1-1-1-1-1-1-1-1-1-1-1-1-1-1-1-1-1-1-1-1-1-1-1-1-1-1-1-1-1-1-1-1-1-1-1-1-0.6v1 1 1 1 1 1 1 1 1 1 1 1 1 1 1 1 1 1 1 1 1 1 1 1 1 1 1 1 1 1 1 1 1 1 1 1 1 1 1 1 1 1 1 1 1z"/>
			<path id="Layer" class="s1" d="m798.6 624.8h1 1 1 1 1 1 1 1 1 1 1 1 1 1 1 1 1 1 1 1 1 1 1 1 1 1 1 1 1 1 1 1 1 1 1 1 1 1 1 1 1 1 1 1 1 0.6v-1-1-1-1-1-1-1-1-1-1-1-1-1-1-1-1-1-1-1-1-1-1-1-1-1-1-1-1-1-1-1-1-1-1-1-1-1-1-1-1-1-1-1-1-1-0.6h-1-1-1-1-1-1-1-1-1-1-1-1-1-1-1-1-1-1-1-1-1-1-1-1-1-1-1-1-1-1-1-1-1-1-1-1-1-1-1-1-1-1-1-1-1-0.6v1 1 1 1 1 1 1 1 1 1 1 1 1 1 1 1 1 1 1 1 1 1 1 1 1 1 1 1 1 1 1 1 1 1 1 1 1 1 1 1 1 1 1 1 1z"/>
			<path id="Layer" class="s1" d="m798.6 672h1 1 1 1 1 1 1 1 1 1 1 1 1 1 1 1 1 1 1 1 1 1 1 1 1 1 1 1 1 1 1 1 1 1 1 1 1 1 1 1 1 1 1 1 1 0.6v-1-1-1-1-1-1-1-1-1-1-1-1-1-1-1-1-1-1-1-1-1-1-1-1-1-1-1-1-1-1-1-1-1-1-1-1-1-1-1-1-1-1-1-1-1-0.7h-1-1-1-1-1-1-1-1-1-1-1-1-1-1-1-1-1-1-1-1-1-1-1-1-1-1-1-1-1-1-1-1-1-1-1-1-1-1-1-1-1-1-1-1-1-0.6v1 1 1 1 1 1 1 1 1 1 1 1 1 1 1 1 1 1 1 1 1 1 1 1 1 1 1 1 1 1 1 1 1 1 1 1 1 1 1 1 1 1 1 1 1z"/>
			<path id="Layer" class="s1" d="m798.6 719.1h1 1 1 1 1 1 1 1 1 1 1 1 1 1 1 1 1 1 1 1 1 1 1 1 1 1 1 1 1 1 1 1 1 1 1 1 1 1 1 1 1 1 1 1 1 0.6v-1-1-1-1-1-1-1-1-1-1-1-1-1-1-1-1-1-1-1-1-1-1-1-1-1-1-1-1-1-1-1-1-1-1-1-1-1-1-1-1-1-1-1-1-1-0.6h-1-1-1-1-1-1-1-1-1-1-1-1-1-1-1-1-1-1-1-1-1-1-1-1-1-1-1-1-1-1-1-1-1-1-1-1-1-1-1-1-1-1-1-1-1-0.6v1 1 1 1 1 1 1 1 1 1 1 1 1 1 1 1 1 1 1 1 1 1 1 1 1 1 1 1 1 1 1 1 1 1 1 1 1 1 1 1 1 1 1 1 1z"/>
			<path id="Layer" class="s1" d="m798.6 766.3h1 1 1 1 1 1 1 1 1 1 1 1 1 1 1 1 1 1 1 1 1 1 1 1 1 1 1 1 1 1 1 1 1 1 1 1 1 1 1 1 1 1 1 1 1 0.6v-1-1-1-1-1-1-1-1-1-1-1-1-1-1-1-1-1-1-1-1-1-1-1-1-1-1-1-1-1-1-1-1-1-1-1-1-1-1-1-1-1-1-1-1-1-0.6h-1-1-1-1-1-1-1-1-1-1-1-1-1-1-1-1-1-1-1-1-1-1-1-1-1-1-1-1-1-1-1-1-1-1-1-1-1-1-1-1-1-1-1-1-1-0.6v1 1 1 1 1 1 1 1 1 1 1 1 1 1 1 1 1 1 1 1 1 1 1 1 1 1 1 1 1 1 1 1 1 1 1 1 1 1 1 1 1 1 1 1 1z"/>
			<path id="Layer" class="s1" d="m740.8 766.3h1 1 1 1 1 1 1 1 1 1 1 1 1 1 1 1 1 1 1 1 1 1 1 1 1 1 1 1 1 1 1 1 1 1 1 1 1 1 1 1 1 1 1 1 1 0.7v-1-1-1-1-1-1-1-1-1-1-1-1-1-1-1-1-1-1-1-1-1-1-1-1-1-1-1-1-1-1-1-1-1-1-1-1-1-1-1-1-1-1-1-1-1-0.6h-1-1-1-1-1-1-1-1-1-1-1-1-1-1-1-1-1-1-1-1-1-1-1-1-1-1-1-1-1-1-1-1-1-1-1-1-1-1-1-1-1-1-1-1-1-0.7v1 1 1 1 1 1 1 1 1 1 1 1 1 1 1 1 1 1 1 1 1 1 1 1 1 1 1 1 1 1 1 1 1 1 1 1 1 1 1 1 1 1 1 1 1z"/>
			<path id="Layer" class="s1" d="m740.8 819.4h1 1 1 1 1 1 1 1 1 1 1 1 1 1 1 1 1 1 1 1 1 1 1 1 1 1 1 1 1 1 1 1 1 1 1 1 1 1 1 1 1 1 1 1 1 0.7v-1-1-1-1-1-1-1-1-1-1-1-1-1-1-1-1-1-1-1-1-1-1-1-1-1-1-1-1-1-1-1-1-1-1-1-1-1-1-1-1-1-1-1-1-1-0.6h-1-1-1-1-1-1-1-1-1-1-1-1-1-1-1-1-1-1-1-1-1-1-1-1-1-1-1-1-1-1-1-1-1-1-1-1-1-1-1-1-1-1-1-1-1-0.7v1 1 1 1 1 1 1 1 1 1 1 1 1 1 1 1 1 1 1 1 1 1 1 1 1 1 1 1 1 1 1 1 1 1 1 1 1 1 1 1 1 1 1 1 1z"/>
			<path id="Layer" class="s1" d="m740.8 872.5h1 1 1 1 1 1 1 1 1 1 1 1 1 1 1 1 1 1 1 1 1 1 1 1 1 1 1 1 1 1 1 1 1 1 1 1 1 1 1 1 1 1 1 1 1 0.7v-1-1-1-1-1-1-1-1-1-1-1-1-1-1-1-1-1-1-1-1-1-1-1-1-1-1-1-1-1-1-1-1-1-1-1-1-1-1-1-1-1-1-1-1-1-0.6h-1-1-1-1-1-1-1-1-1-1-1-1-1-1-1-1-1-1-1-1-1-1-1-1-1-1-1-1-1-1-1-1-1-1-1-1-1-1-1-1-1-1-1-1-1-0.7v1 1 1 1 1 1 1 1 1 1 1 1 1 1 1 1 1 1 1 1 1 1 1 1 1 1 1 1 1 1 1 1 1 1 1 1 1 1 1 1 1 1 1 1 1z"/>
			<path id="Layer" class="s1" d="m678 766.3h1 1 1 1 1 1 1 1 1 1 1 1 1 1 1 1 1 1 1 1 1 1 1 1 1 1 1 1 1 1 1 1 1 1 1 1 1 1 1 1 1 1 1 1 1 0.6v-1-1-1-1-1-1-1-1-1-1-1-1-1-1-1-1-1-1-1-1-1-1-1-1-1-1-1-1-1-1-1-1-1-1-1-1-1-1-1-1-1-1-1-1-1-0.6h-1-1-1-1-1-1-1-1-1-1-1-1-1-1-1-1-1-1-1-1-1-1-1-1-1-1-1-1-1-1-1-1-1-1-1-1-1-1-1-1-1-1-1-1-1-0.6v1 1 1 1 1 1 1 1 1 1 1 1 1 1 1 1 1 1 1 1 1 1 1 1 1 1 1 1 1 1 1 1 1 1 1 1 1 1 1 1 1 1 1 1 1z"/>
			<path id="Layer" class="s1" d="m678 819.4h1 1 1 1 1 1 1 1 1 1 1 1 1 1 1 1 1 1 1 1 1 1 1 1 1 1 1 1 1 1 1 1 1 1 1 1 1 1 1 1 1 1 1 1 1 0.6v-1-1-1-1-1-1-1-1-1-1-1-1-1-1-1-1-1-1-1-1-1-1-1-1-1-1-1-1-1-1-1-1-1-1-1-1-1-1-1-1-1-1-1-1-1-0.6h-1-1-1-1-1-1-1-1-1-1-1-1-1-1-1-1-1-1-1-1-1-1-1-1-1-1-1-1-1-1-1-1-1-1-1-1-1-1-1-1-1-1-1-1-1-0.6v1 1 1 1 1 1 1 1 1 1 1 1 1 1 1 1 1 1 1 1 1 1 1 1 1 1 1 1 1 1 1 1 1 1 1 1 1 1 1 1 1 1 1 1 1z"/>
			<path id="Layer" class="s1" d="m678 872.5h1 1 1 1 1 1 1 1 1 1 1 1 1 1 1 1 1 1 1 1 1 1 1 1 1 1 1 1 1 1 1 1 1 1 1 1 1 1 1 1 1 1 1 1 1 0.6v-1-1-1-1-1-1-1-1-1-1-1-1-1-1-1-1-1-1-1-1-1-1-1-1-1-1-1-1-1-1-1-1-1-1-1-1-1-1-1-1-1-1-1-1-1-0.6h-1-1-1-1-1-1-1-1-1-1-1-1-1-1-1-1-1-1-1-1-1-1-1-1-1-1-1-1-1-1-1-1-1-1-1-1-1-1-1-1-1-1-1-1-1-0.6v1 1 1 1 1 1 1 1 1 1 1 1 1 1 1 1 1 1 1 1 1 1 1 1 1 1 1 1 1 1 1 1 1 1 1 1 1 1 1 1 1 1 1 1 1z"/>
			<path id="Layer" class="s1" d="m615.1 819.4h1 1 1 1 1 1 1 1 1 1 1 1 1 1 1 1 1 1 1 1 1 1 1 1 1 1 1 1 1 1 1 1 1 1 1 1 1 1 1 1 1 1 1 1 1 0.6v-1-1-1-1-1-1-1-1-1-1-1-1-1-1-1-1-1-1-1-1-1-1-1-1-1-1-1-1-1-1-1-1-1-1-1-1-1-1-1-1-1-1-1-1-1-0.6h-1-1-1-1-1-1-1-1-1-1-1-1-1-1-1-1-1-1-1-1-1-1-1-1-1-1-1-1-1-1-1-1-1-1-1-1-1-1-1-1-1-1-1-1-1-0.6v1 1 1 1 1 1 1 1 1 1 1 1 1 1 1 1 1 1 1 1 1 1 1 1 1 1 1 1 1 1 1 1 1 1 1 1 1 1 1 1 1 1 1 1 1z"/>
			<path id="Layer" class="s1" d="m552.2 819.4h1 1 1 1 1 1 1 1 1 1 1 1 1 1 1 1 1 1 1 1 1 1 1 1 1 1 1 1 1 1 1 1 1 1 1 1 1 1 1 1 1 1 1 1 1 0.6v-1-1-1-1-1-1-1-1-1-1-1-1-1-1-1-1-1-1-1-1-1-1-1-1-1-1-1-1-1-1-1-1-1-1-1-1-1-1-1-1-1-1-1-1-1-0.6h-1-1-1-1-1-1-1-1-1-1-1-1-1-1-1-1-1-1-1-1-1-1-1-1-1-1-1-1-1-1-1-1-1-1-1-1-1-1-1-1-1-1-1-1-1-0.6v1 1 1 1 1 1 1 1 1 1 1 1 1 1 1 1 1 1 1 1 1 1 1 1 1 1 1 1 1 1 1 1 1 1 1 1 1 1 1 1 1 1 1 1 1z"/>
			<path id="Layer" class="s1" d="m552.2 872.1h1 1 1 1 1 1 1 1 1 1 1 1 1 1 1 1 1 1 1 1 1 1 1 1 1 1 1 1 1 1 1 1 1 1 1 1 1 1 1 1 1 1 1 1 1 0.6v-1-1-1-1-1-1-1-1-1-1-1-1-1-1-1-1-1-1-1-1-1-1-1-1-1-1-1-1-1-1-1-1-1-1-1-1-1-1-1-1-1-1-1-1-1-0.6h-1-1-1-1-1-1-1-1-1-1-1-1-1-1-1-1-1-1-1-1-1-1-1-1-1-1-1-1-1-1-1-1-1-1-1-1-1-1-1-1-1-1-1-1-1-0.6v1 1 1 1 1 1 1 1 1 1 1 1 1 1 1 1 1 1 1 1 1 1 1 1 1 1 1 1 1 1 1 1 1 1 1 1 1 1 1 1 1 1 1 1 1z"/>
			<path id="Layer" class="s1" d="m579.4 754.4h1 1 1 1 1 1 1 1 1 1 1 1 1 1 1 1 1 1 1 1 1 1 1 1 1 1 1 1 1 1 1 1 1 1 1 1 1 1 1 1 1 1 1 1 1 0.6v-1-1-1-1-1-1-1-1-1-1-1-1-1-1-1-1-1-1-1-1-1-1-1-1-1-1-1-1-1-1-1-1-1-1-1-1-1-1-1-1-1-1-1-1-1-0.6h-1-1-1-1-1-1-1-1-1-1-1-1-1-1-1-1-1-1-1-1-1-1-1-1-1-1-1-1-1-1-1-1-1-1-1-1-1-1-1-1-1-1-1-1-1-0.6v1 1 1 1 1 1 1 1 1 1 1 1 1 1 1 1 1 1 1 1 1 1 1 1 1 1 1 1 1 1 1 1 1 1 1 1 1 1 1 1 1 1 1 1 1z"/>
			<path id="Layer" class="s1" d="m579.4 691.1h1 1 1 1 1 1 1 1 1 1 1 1 1 1 1 1 1 1 1 1 1 1 1 1 1 1 1 1 1 1 1 1 1 1 1 1 1 1 1 1 1 1 1 1 1 0.6v-1-1-1-1-1-1-1-1-1-1-1-1-1-1-1-1-1-1-1-1-1-1-1-1-1-1-1-1-1-1-1-1-1-1-1-1-1-1-1-1-1-1-1-1-1-0.6h-1-1-1-1-1-1-1-1-1-1-1-1-1-1-1-1-1-1-1-1-1-1-1-1-1-1-1-1-1-1-1-1-1-1-1-1-1-1-1-1-1-1-1-1-1-0.6v1 1 1 1 1 1 1 1 1 1 1 1 1 1 1 1 1 1 1 1 1 1 1 1 1 1 1 1 1 1 1 1 1 1 1 1 1 1 1 1 1 1 1 1 1z"/>
			<path id="Layer" class="s1" d="m515.2 551.3h1 1 1 1 1 1 1 1 1 1 1 1 1 1 1 1 1 1 1 1 1 1 1 1 1 1 1 1 1 1 1 1 1 1 1 1 1 1 1 1 1 1 1 1 1 0.7v-1-1-1-1-1-1-1-1-1-1-1-1-1-1-1-1-1-1-1-1-1-1-1-1-1-1-1-1-1-1-1-1-1-1-1-1-1-1-1-1-1-1-1-1-1-0.6h-1-1-1-1-1-1-1-1-1-1-1-1-1-1-1-1-1-1-1-1-1-1-1-1-1-1-1-1-1-1-1-1-1-1-1-1-1-1-1-1-1-1-1-1-1-0.7v1 1 1 1 1 1 1 1 1 1 1 1 1 1 1 1 1 1 1 1 1 1 1 1 1 1 1 1 1 1 1 1 1 1 1 1 1 1 1 1 1 1 1 1 1z"/>
			<path id="Layer" class="s2" d="m343.9 572.7h1 1 1 1 1 1 1 1 1 1 1 1 1 1 1 1 1 1 1 1 1 1 1 1 1 1 1 1 1 1 1 1 1 1 1 1 1 1 1 1 1 1 1 1 1 0.6v-1-1-1-1-1-1-1-1-1-1-1-1-1-1-1-1-1-1-1-1-1-1-1-1-1-1-1-1-1-1-1-1-1-1-1-1-1-1-1-1-1-1-1-1-1-0.6h-1-1-1-1-1-1-1-1-1-1-1-1-1-1-1-1-1-1-1-1-1-1-1-1-1-1-1-1-1-1-1-1-1-1-1-1-1-1-1-1-1-1-1-1-1-0.6v1 1 1 1 1 1 1 1 1 1 1 1 1 1 1 1 1 1 1 1 1 1 1 1 1 1 1 1 1 1 1 1 1 1 1 1 1 1 1 1 1 1 1 1 1z"/>
			<path id="Layer" class="s3" d="m269.2 488.8h1 1 1 1 1 1 1 1 1 1 1 1 1 1 1 1 1 1 1 1 1 1 1 1 1 1 1 1 1 1 1 1 1 1 1 1 1 1 1 1 1 1 1 1 1 0.6v-1-1-1-1-1-1-1-1-1-1-1-1-1-1-1-1-1-1-1-1-1-1-1-1-1-1-1-1-1-1-1-1-1-1-1-1-1-1-1-1-1-1-1-1-1-0.6h-1-1-1-1-1-1-1-1-1-1-1-1-1-1-1-1-1-1-1-1-1-1-1-1-1-1-1-1-1-1-1-1-1-1-1-1-1-1-1-1-1-1-1-1-1-0.6v1 1 1 1 1 1 1 1 1 1 1 1 1 1 1 1 1 1 1 1 1 1 1 1 1 1 1 1 1 1 1 1 1 1 1 1 1 1 1 1 1 1 1 1 1z"/>
			<path id="Layer" class="s3" d="m269.2 416.2h1 1 1 1 1 1 1 1 1 1 1 1 1 1 1 1 1 1 1 1 1 1 1 1 1 1 1 1 1 1 1 1 1 1 1 1 1 1 1 1 1 1 1 1 1 0.6v-1-1-1-1-1-1-1-1-1-1-1-1-1-1-1-1-1-1-1-1-1-1-1-1-1-1-1-1-1-1-1-1-1-1-1-1-1-1-1-1-1-1-1-1-1-0.6h-1-1-1-1-1-1-1-1-1-1-1-1-1-1-1-1-1-1-1-1-1-1-1-1-1-1-1-1-1-1-1-1-1-1-1-1-1-1-1-1-1-1-1-1-1-0.6v1 1 1 1 1 1 1 1 1 1 1 1 1 1 1 1 1 1 1 1 1 1 1 1 1 1 1 1 1 1 1 1 1 1 1 1 1 1 1 1 1 1 1 1 1z"/>
			<path id="Layer" class="s3" d="m187.1 488.8h1 1 1 1 1 1 1 1 1 1 1 1 1 1 1 1 1 1 1 1 1 1 1 1 1 1 1 1 1 1 1 1 1 1 1 1 1 1 1 1 1 1 1 1 1 0.6v-1-1-1-1-1-1-1-1-1-1-1-1-1-1-1-1-1-1-1-1-1-1-1-1-1-1-1-1-1-1-1-1-1-1-1-1-1-1-1-1-1-1-1-1-1-0.6h-1-1-1-1-1-1-1-1-1-1-1-1-1-1-1-1-1-1-1-1-1-1-1-1-1-1-1-1-1-1-1-1-1-1-1-1-1-1-1-1-1-1-1-1-1-0.6v1 1 1 1 1 1 1 1 1 1 1 1 1 1 1 1 1 1 1 1 1 1 1 1 1 1 1 1 1 1 1 1 1 1 1 1 1 1 1 1 1 1 1 1 1z"/>
			<path id="Layer" class="s3" d="m187.1 551.1h1 1 1 1 1 1 1 1 1 1 1 1 1 1 1 1 1 1 1 1 1 1 1 1 1 1 1 1 1 1 1 1 1 1 1 1 1 1 1 1 1 1 1 1 1 0.6v-1-1-1-1-1-1-1-1-1-1-1-1-1-1-1-1-1-1-1-1-1-1-1-1-1-1-1-1-1-1-1-1-1-1-1-1-1-1-1-1-1-1-1-1-1-0.6h-1-1-1-1-1-1-1-1-1-1-1-1-1-1-1-1-1-1-1-1-1-1-1-1-1-1-1-1-1-1-1-1-1-1-1-1-1-1-1-1-1-1-1-1-1-0.6v1 1 1 1 1 1 1 1 1 1 1 1 1 1 1 1 1 1 1 1 1 1 1 1 1 1 1 1 1 1 1 1 1 1 1 1 1 1 1 1 1 1 1 1 1z"/>
			<path id="Layer" class="s3" d="m187.1 423.6h1 1 1 1 1 1 1 1 1 1 1 1 1 1 1 1 1 1 1 1 1 1 1 1 1 1 1 1 1 1 1 1 1 1 1 1 1 1 1 1 1 1 1 1 1 0.6v-1-1-1-1-1-1-1-1-1-1-1-1-1-1-1-1-1-1-1-1-1-1-1-1-1-1-1-1-1-1-1-1-1-1-1-1-1-1-1-1-1-1-1-1-1-0.6h-1-1-1-1-1-1-1-1-1-1-1-1-1-1-1-1-1-1-1-1-1-1-1-1-1-1-1-1-1-1-1-1-1-1-1-1-1-1-1-1-1-1-1-1-1-0.6v1 1 1 1 1 1 1 1 1 1 1 1 1 1 1 1 1 1 1 1 1 1 1 1 1 1 1 1 1 1 1 1 1 1 1 1 1 1 1 1 1 1 1 1 1z"/>
			<path id="Layer" class="s3" d="m187.1 356.4h1 1 1 1 1 1 1 1 1 1 1 1 1 1 1 1 1 1 1 1 1 1 1 1 1 1 1 1 1 1 1 1 1 1 1 1 1 1 1 1 1 1 1 1 1 0.6v-1-1-1-1-1-1-1-1-1-1-1-1-1-1-1-1-1-1-1-1-1-1-1-1-1-1-1-1-1-1-1-1-1-1-1-1-1-1-1-1-1-1-1-1-1-0.6h-1-1-1-1-1-1-1-1-1-1-1-1-1-1-1-1-1-1-1-1-1-1-1-1-1-1-1-1-1-1-1-1-1-1-1-1-1-1-1-1-1-1-1-1-1-0.6v1 1 1 1 1 1 1 1 1 1 1 1 1 1 1 1 1 1 1 1 1 1 1 1 1 1 1 1 1 1 1 1 1 1 1 1 1 1 1 1 1 1 1 1 1z"/>
			<path id="Layer" class="s3" d="m97.8 373h1 1 1 1 1 1 1 1 1 1 1 1 1 1 1 1 1 1 1 1 1 1 1 1 1 1 1 1 1 1 1 1 1 1 1 1 1 1 1 1 1 1 1 1 1 0.7v-1-1-1-1-1-1-1-1-1-1-1-1-1-1-1-1-1-1-1-1-1-1-1-1-1-1-1-1-1-1-1-1-1-1-1-1-1-1-1-1-1-1-1-1-1-0.6h-1-1-1-1-1-1-1-1-1-1-1-1-1-1-1-1-1-1-1-1-1-1-1-1-1-1-1-1-1-1-1-1-1-1-1-1-1-1-1-1-1-1-1-1-1-0.7v1 1 1 1 1 1 1 1 1 1 1 1 1 1 1 1 1 1 1 1 1 1 1 1 1 1 1 1 1 1 1 1 1 1 1 1 1 1 1 1 1 1 1 1 1z"/>
			<path id="Layer" class="s3" d="m97.8 423.3h1 1 1 1 1 1 1 1 1 1 1 1 1 1 1 1 1 1 1 1 1 1 1 1 1 1 1 1 1 1 1 1 1 1 1 1 1 1 1 1 1 1 1 1 1 0.7v-1-1-1-1-1-1-1-1-1-1-1-1-1-1-1-1-1-1-1-1-1-1-1-1-1-1-1-1-1-1-1-1-1-1-1-1-1-1-1-1-1-1-1-1-1-0.6h-1-1-1-1-1-1-1-1-1-1-1-1-1-1-1-1-1-1-1-1-1-1-1-1-1-1-1-1-1-1-1-1-1-1-1-1-1-1-1-1-1-1-1-1-1-0.7v1 1 1 1 1 1 1 1 1 1 1 1 1 1 1 1 1 1 1 1 1 1 1 1 1 1 1 1 1 1 1 1 1 1 1 1 1 1 1 1 1 1 1 1 1z"/>
			<path id="Layer" class="s3" d="m97.8 474.6h1 1 1 1 1 1 1 1 1 1 1 1 1 1 1 1 1 1 1 1 1 1 1 1 1 1 1 1 1 1 1 1 1 1 1 1 1 1 1 1 1 1 1 1 1 0.7v-1-1-1-1-1-1-1-1-1-1-1-1-1-1-1-1-1-1-1-1-1-1-1-1-1-1-1-1-1-1-1-1-1-1-1-1-1-1-1-1-1-1-1-1-1-0.6h-1-1-1-1-1-1-1-1-1-1-1-1-1-1-1-1-1-1-1-1-1-1-1-1-1-1-1-1-1-1-1-1-1-1-1-1-1-1-1-1-1-1-1-1-1-0.7v1 1 1 1 1 1 1 1 1 1 1 1 1 1 1 1 1 1 1 1 1 1 1 1 1 1 1 1 1 1 1 1 1 1 1 1 1 1 1 1 1 1 1 1 1z"/>
			<path id="Layer" class="s3" d="m97.8 528.4h1 1 1 1 1 1 1 1 1 1 1 1 1 1 1 1 1 1 1 1 1 1 1 1 1 1 1 1 1 1 1 1 1 1 1 1 1 1 1 1 1 1 1 1 1 0.7v-1-1-1-1-1-1-1-1-1-1-1-1-1-1-1-1-1-1-1-1-1-1-1-1-1-1-1-1-1-1-1-1-1-1-1-1-1-1-1-1-1-1-1-1-1-0.6h-1-1-1-1-1-1-1-1-1-1-1-1-1-1-1-1-1-1-1-1-1-1-1-1-1-1-1-1-1-1-1-1-1-1-1-1-1-1-1-1-1-1-1-1-1-0.7v1 1 1 1 1 1 1 1 1 1 1 1 1 1 1 1 1 1 1 1 1 1 1 1 1 1 1 1 1 1 1 1 1 1 1 1 1 1 1 1 1 1 1 1 1z"/>
			<path id="Layer" class="s3" d="m97.8 579.4h1 1 1 1 1 1 1 1 1 1 1 1 1 1 1 1 1 1 1 1 1 1 1 1 1 1 1 1 1 1 1 1 1 1 1 1 1 1 1 1 1 1 1 1 1 0.7v-1-1-1-1-1-1-1-1-1-1-1-1-1-1-1-1-1-1-1-1-1-1-1-1-1-1-1-1-1-1-1-1-1-1-1-1-1-1-1-1-1-1-1-1-1-0.6h-1-1-1-1-1-1-1-1-1-1-1-1-1-1-1-1-1-1-1-1-1-1-1-1-1-1-1-1-1-1-1-1-1-1-1-1-1-1-1-1-1-1-1-1-1-0.7v1 1 1 1 1 1 1 1 1 1 1 1 1 1 1 1 1 1 1 1 1 1 1 1 1 1 1 1 1 1 1 1 1 1 1 1 1 1 1 1 1 1 1 1 1z"/>
			<path id="Layer" class="s3" d="m36.2 373h1 1 1 1 1 1 1 1 1 1 1 1 1 1 1 1 1 1 1 1 1 1 1 1 1 1 1 1 1 1 1 1 1 1 1 1 1 1 1 1 1 1 1 1 1 0.7v-1-1-1-1-1-1-1-1-1-1-1-1-1-1-1-1-1-1-1-1-1-1-1-1-1-1-1-1-1-1-1-1-1-1-1-1-1-1-1-1-1-1-1-1-1-0.6h-1-1-1-1-1-1-1-1-1-1-1-1-1-1-1-1-1-1-1-1-1-1-1-1-1-1-1-1-1-1-1-1-1-1-1-1-1-1-1-1-1-1-1-1-1-0.7v1 1 1 1 1 1 1 1 1 1 1 1 1 1 1 1 1 1 1 1 1 1 1 1 1 1 1 1 1 1 1 1 1 1 1 1 1 1 1 1 1 1 1 1 1z"/>
			<path id="Layer" class="s3" d="m36.2 438.2h1 1 1 1 1 1 1 1 1 1 1 1 1 1 1 1 1 1 1 1 1 1 1 1 1 1 1 1 1 1 1 1 1 1 1 1 1 1 1 1 1 1 1 1 1 0.7v-1-1-1-1-1-1-1-1-1-1-1-1-1-1-1-1-1-1-1-1-1-1-1-1-1-1-1-1-1-1-1-1-1-1-1-1-1-1-1-1-1-1-1-1-1-0.7h-1-1-1-1-1-1-1-1-1-1-1-1-1-1-1-1-1-1-1-1-1-1-1-1-1-1-1-1-1-1-1-1-1-1-1-1-1-1-1-1-1-1-1-1-1-0.7v1 1 1 1 1 1 1 1 1 1 1 1 1 1 1 1 1 1 1 1 1 1 1 1 1 1 1 1 1 1 1 1 1 1 1 1 1 1 1 1 1 1 1 1 1z"/>
			<path id="Layer" class="s3" d="m351 416.2h1 1 1 1 1 1 1 1 1 1 1 1 1 1 1 1 1 1 1 1 1 1 1 1 1 1 1 1 1 1 1 1 1 1 1 1 1 1 1 1 1 1 1 1 1 0.6v-1-1-1-1-1-1-1-1-1-1-1-1-1-1-1-1-1-1-1-1-1-1-1-1-1-1-1-1-1-1-1-1-1-1-1-1-1-1-1-1-1-1-1-1-1-0.6h-1-1-1-1-1-1-1-1-1-1-1-1-1-1-1-1-1-1-1-1-1-1-1-1-1-1-1-1-1-1-1-1-1-1-1-1-1-1-1-1-1-1-1-1-1-0.6v1 1 1 1 1 1 1 1 1 1 1 1 1 1 1 1 1 1 1 1 1 1 1 1 1 1 1 1 1 1 1 1 1 1 1 1 1 1 1 1 1 1 1 1 1z"/>
			<path id="Layer" class="s4" d="m430.9 353.3h1 1 1 1 1 1 1 1 1 1 1 1 1 1 1 1 1 1 1 1 1 1 1 1 1 1 1 1 1 1 1 1 1 1 1 1 1 1 1 1 1 1 1 1 1 0.6v-1-1-1-1-1-1-1-1-1-1-1-1-1-1-1-1-1-1-1-1-1-1-1-1-1-1-1-1-1-1-1-1-1-1-1-1-1-1-1-1-1-1-1-1-1-0.6h-1-1-1-1-1-1-1-1-1-1-1-1-1-1-1-1-1-1-1-1-1-1-1-1-1-1-1-1-1-1-1-1-1-1-1-1-1-1-1-1-1-1-1-1-1-0.6v1 1 1 1 1 1 1 1 1 1 1 1 1 1 1 1 1 1 1 1 1 1 1 1 1 1 1 1 1 1 1 1 1 1 1 1 1 1 1 1 1 1 1 1 1z"/>
			<path id="Layer" class="s4" d="m430.9 291.7h1 1 1 1 1 1 1 1 1 1 1 1 1 1 1 1 1 1 1 1 1 1 1 1 1 1 1 1 1 1 1 1 1 1 1 1 1 1 1 1 1 1 1 1 1 0.6v-1-1-1-1-1-1-1-1-1-1-1-1-1-1-1-1-1-1-1-1-1-1-1-1-1-1-1-1-1-1-1-1-1-1-1-1-1-1-1-1-1-1-1-1-1-0.6h-1-1-1-1-1-1-1-1-1-1-1-1-1-1-1-1-1-1-1-1-1-1-1-1-1-1-1-1-1-1-1-1-1-1-1-1-1-1-1-1-1-1-1-1-1-0.6v1 1 1 1 1 1 1 1 1 1 1 1 1 1 1 1 1 1 1 1 1 1 1 1 1 1 1 1 1 1 1 1 1 1 1 1 1 1 1 1 1 1 1 1 1z"/>
			<path id="Layer" class="s4" d="m430.9 241.6h1 1 1 1 1 1 1 1 1 1 1 1 1 1 1 1 1 1 1 1 1 1 1 1 1 1 1 1 1 1 1 1 1 1 1 1 1 1 1 1 1 1 1 1 1 0.6v-1-1-1-1-1-1-1-1-1-1-1-1-1-1-1-1-1-1-1-1-1-1-1-1-1-1-1-1-1-1-1-1-1-1-1-1-1-1-1-1-1-1-1-1-1-0.6h-1-1-1-1-1-1-1-1-1-1-1-1-1-1-1-1-1-1-1-1-1-1-1-1-1-1-1-1-1-1-1-1-1-1-1-1-1-1-1-1-1-1-1-1-1-0.6v1 1 1 1 1 1 1 1 1 1 1 1 1 1 1 1 1 1 1 1 1 1 1 1 1 1 1 1 1 1 1 1 1 1 1 1 1 1 1 1 1 1 1 1 1z"/>
			<path id="Layer" class="s4" d="m430.9 192.3h1 1 1 1 1 1 1 1 1 1 1 1 1 1 1 1 1 1 1 1 1 1 1 1 1 1 1 1 1 1 1 1 1 1 1 1 1 1 1 1 1 1 1 1 1 0.6v-1-1-1-1-1-1-1-1-1-1-1-1-1-1-1-1-1-1-1-1-1-1-1-1-1-1-1-1-1-1-1-1-1-1-1-1-1-1-1-1-1-1-1-1-1-0.6h-1-1-1-1-1-1-1-1-1-1-1-1-1-1-1-1-1-1-1-1-1-1-1-1-1-1-1-1-1-1-1-1-1-1-1-1-1-1-1-1-1-1-1-1-1-0.6v1 1 1 1 1 1 1 1 1 1 1 1 1 1 1 1 1 1 1 1 1 1 1 1 1 1 1 1 1 1 1 1 1 1 1 1 1 1 1 1 1 1 1 1 1z"/>
			<path id="Layer" class="s4" d="m566 301.9h1 1 1 1 1 1 1 1 1 1 1 1 1 1 1 1 1 1 1 1 1 1 1 1 1 1 1 1 1 1 1 1 1 1 1 1 1 1 1 1 1 1 1 1 1 0.6v-1-1-1-1-1-1-1-1-1-1-1-1-1-1-1-1-1-1-1-1-1-1-1-1-1-1-1-1-1-1-1-1-1-1-1-1-1-1-1-1-1-1-1-1-1-0.6h-1-1-1-1-1-1-1-1-1-1-1-1-1-1-1-1-1-1-1-1-1-1-1-1-1-1-1-1-1-1-1-1-1-1-1-1-1-1-1-1-1-1-1-1-1-0.6v1 1 1 1 1 1 1 1 1 1 1 1 1 1 1 1 1 1 1 1 1 1 1 1 1 1 1 1 1 1 1 1 1 1 1 1 1 1 1 1 1 1 1 1 1z"/>
			<path id="Layer" class="s4" d="m566 228.8h1 1 1 1 1 1 1 1 1 1 1 1 1 1 1 1 1 1 1 1 1 1 1 1 1 1 1 1 1 1 1 1 1 1 1 1 1 1 1 1 1 1 1 1 1 0.6v-1-1-1-1-1-1-1-1-1-1-1-1-1-1-1-1-1-1-1-1-1-1-1-1-1-1-1-1-1-1-1-1-1-1-1-1-1-1-1-1-1-1-1-1-1-0.6h-1-1-1-1-1-1-1-1-1-1-1-1-1-1-1-1-1-1-1-1-1-1-1-1-1-1-1-1-1-1-1-1-1-1-1-1-1-1-1-1-1-1-1-1-1-0.6v1 1 1 1 1 1 1 1 1 1 1 1 1 1 1 1 1 1 1 1 1 1 1 1 1 1 1 1 1 1 1 1 1 1 1 1 1 1 1 1 1 1 1 1 1z"/>
			<path id="Layer" class="s4" d="m566 77.6h1 1 1 1 1 1 1 1 1 1 1 1 1 1 1 1 1 1 1 1 1 1 1 1 1 1 1 1 1 1 1 1 1 1 1 1 1 1 1 1 1 1 1 1 1 0.6v-1-1-1-1-1-1-1-1-1-1-1-1-1-1-1-1-1-1-1-1-1-1-1-1-1-1-1-1-1-1-1-1-1-1-1-1-1-1-1-1-1-1-1-1-1-0.6h-1-1-1-1-1-1-1-1-1-1-1-1-1-1-1-1-1-1-1-1-1-1-1-1-1-1-1-1-1-1-1-1-1-1-1-1-1-1-1-1-1-1-1-1-1-0.6v1 1 1 1 1 1 1 1 1 1 1 1 1 1 1 1 1 1 1 1 1 1 1 1 1 1 1 1 1 1 1 1 1 1 1 1 1 1 1 1 1 1 1 1 1z"/>
			<path id="Layer" class="s4" d="m597.4 126.9h1 1 1 1 1 1 1 1 1 1 1 1 1 1 1 1 1 1 1 1 1 1 1 1 1 1 1 1 1 1 1 1 1 1 1 1 1 1 1 1 1 1 1 1 1 0.7v-1-1-1-1-1-1-1-1-1-1-1-1-1-1-1-1-1-1-1-1-1-1-1-1-1-1-1-1-1-1-1-1-1-1-1-1-1-1-1-1-1-1-1-1-1-0.7h-1-1-1-1-1-1-1-1-1-1-1-1-1-1-1-1-1-1-1-1-1-1-1-1-1-1-1-1-1-1-1-1-1-1-1-1-1-1-1-1-1-1-1-1-1-0.7v1 1 1 1 1 1 1 1 1 1 1 1 1 1 1 1 1 1 1 1 1 1 1 1 1 1 1 1 1 1 1 1 1 1 1 1 1 1 1 1 1 1 1 1 1z"/>
			<path id="Layer" class="s4" d="m536.3 126.9h1 1 1 1 1 1 1 1 1 1 1 1 1 1 1 1 1 1 1 1 1 1 1 1 1 1 1 1 1 1 1 1 1 1 1 1 1 1 1 1 1 1 1 1 1 0.6v-1-1-1-1-1-1-1-1-1-1-1-1-1-1-1-1-1-1-1-1-1-1-1-1-1-1-1-1-1-1-1-1-1-1-1-1-1-1-1-1-1-1-1-1-1-0.7h-1-1-1-1-1-1-1-1-1-1-1-1-1-1-1-1-1-1-1-1-1-1-1-1-1-1-1-1-1-1-1-1-1-1-1-1-1-1-1-1-1-1-1-1-1-0.6v1 1 1 1 1 1 1 1 1 1 1 1 1 1 1 1 1 1 1 1 1 1 1 1 1 1 1 1 1 1 1 1 1 1 1 1 1 1 1 1 1 1 1 1 1z"/>
			<path id="Layer" class="s4" d="m483.6 95.9h1 1 1 1 1 1 1 1 1 1 1 1 1 1 1 1 1 1 1 1 1 1 1 1 1 1 1 1 1 1 1 1 1 1 1 1 1 1 1 1 1 1 1 1 1 0.6v-1-1-1-1-1-1-1-1-1-1-1-1-1-1-1-1-1-1-1-1-1-1-1-1-1-1-1-1-1-1-1-1-1-1-1-1-1-1-1-1-1-1-1-1-1-0.7h-1-1-1-1-1-1-1-1-1-1-1-1-1-1-1-1-1-1-1-1-1-1-1-1-1-1-1-1-1-1-1-1-1-1-1-1-1-1-1-1-1-1-1-1-1-0.6v1 1 1 1 1 1 1 1 1 1 1 1 1 1 1 1 1 1 1 1 1 1 1 1 1 1 1 1 1 1 1 1 1 1 1 1 1 1 1 1 1 1 1 1 1z"/>
			<path id="Layer" class="s4" d="m650.5 95.9h1 1 1 1 1 1 1 1 1 1 1 1 1 1 1 1 1 1 1 1 1 1 1 1 1 1 1 1 1 1 1 1 1 1 1 1 1 1 1 1 1 1 1 1 1 0.7v-1-1-1-1-1-1-1-1-1-1-1-1-1-1-1-1-1-1-1-1-1-1-1-1-1-1-1-1-1-1-1-1-1-1-1-1-1-1-1-1-1-1-1-1-1-0.7h-1-1-1-1-1-1-1-1-1-1-1-1-1-1-1-1-1-1-1-1-1-1-1-1-1-1-1-1-1-1-1-1-1-1-1-1-1-1-1-1-1-1-1-1-1-0.7v1 1 1 1 1 1 1 1 1 1 1 1 1 1 1 1 1 1 1 1 1 1 1 1 1 1 1 1 1 1 1 1 1 1 1 1 1 1 1 1 1 1 1 1 1z"/>
			<path id="Layer" class="s4" d="m660.7 154.5h1 1 1 1 1 1 1 1 1 1 1 1 1 1 1 1 1 1 1 1 1 1 1 1 1 1 1 1 1 1 1 1 1 1 1 1 1 1 1 1 1 1 1 1 1 0.7v-1-1-1-1-1-1-1-1-1-1-1-1-1-1-1-1-1-1-1-1-1-1-1-1-1-1-1-1-1-1-1-1-1-1-1-1-1-1-1-1-1-1-1-1-1-0.6h-1-1-1-1-1-1-1-1-1-1-1-1-1-1-1-1-1-1-1-1-1-1-1-1-1-1-1-1-1-1-1-1-1-1-1-1-1-1-1-1-1-1-1-1-1-0.7v1 1 1 1 1 1 1 1 1 1 1 1 1 1 1 1 1 1 1 1 1 1 1 1 1 1 1 1 1 1 1 1 1 1 1 1 1 1 1 1 1 1 1 1 1z"/>
			<path id="Layer" class="s4" d="m481.4 154.5h1 1 1 1 1 1 1 1 1 1 1 1 1 1 1 1 1 1 1 1 1 1 1 1 1 1 1 1 1 1 1 1 1 1 1 1 1 1 1 1 1 1 1 1 1 0.7v-1-1-1-1-1-1-1-1-1-1-1-1-1-1-1-1-1-1-1-1-1-1-1-1-1-1-1-1-1-1-1-1-1-1-1-1-1-1-1-1-1-1-1-1-1-0.6h-1-1-1-1-1-1-1-1-1-1-1-1-1-1-1-1-1-1-1-1-1-1-1-1-1-1-1-1-1-1-1-1-1-1-1-1-1-1-1-1-1-1-1-1-1-0.7v1 1 1 1 1 1 1 1 1 1 1 1 1 1 1 1 1 1 1 1 1 1 1 1 1 1 1 1 1 1 1 1 1 1 1 1 1 1 1 1 1 1 1 1 1z"/>
			<path id="Layer" class="s4" d="m660.7 206.3h1 1 1 1 1 1 1 1 1 1 1 1 1 1 1 1 1 1 1 1 1 1 1 1 1 1 1 1 1 1 1 1 1 1 1 1 1 1 1 1 1 1 1 1 1 0.7v-1-1-1-1-1-1-1-1-1-1-1-1-1-1-1-1-1-1-1-1-1-1-1-1-1-1-1-1-1-1-1-1-1-1-1-1-1-1-1-1-1-1-1-1-1-0.6h-1-1-1-1-1-1-1-1-1-1-1-1-1-1-1-1-1-1-1-1-1-1-1-1-1-1-1-1-1-1-1-1-1-1-1-1-1-1-1-1-1-1-1-1-1-0.7v1 1 1 1 1 1 1 1 1 1 1 1 1 1 1 1 1 1 1 1 1 1 1 1 1 1 1 1 1 1 1 1 1 1 1 1 1 1 1 1 1 1 1 1 1z"/>
			<path id="Layer" class="s4" d="m660.7 265.4h1 1 1 1 1 1 1 1 1 1 1 1 1 1 1 1 1 1 1 1 1 1 1 1 1 1 1 1 1 1 1 1 1 1 1 1 1 1 1 1 1 1 1 1 1 0.7v-1-1-1-1-1-1-1-1-1-1-1-1-1-1-1-1-1-1-1-1-1-1-1-1-1-1-1-1-1-1-1-1-1-1-1-1-1-1-1-1-1-1-1-1-1-0.6h-1-1-1-1-1-1-1-1-1-1-1-1-1-1-1-1-1-1-1-1-1-1-1-1-1-1-1-1-1-1-1-1-1-1-1-1-1-1-1-1-1-1-1-1-1-0.7v1 1 1 1 1 1 1 1 1 1 1 1 1 1 1 1 1 1 1 1 1 1 1 1 1 1 1 1 1 1 1 1 1 1 1 1 1 1 1 1 1 1 1 1 1z"/>
			<path id="Layer" class="s4" d="m660.7 327.4h1 1 1 1 1 1 1 1 1 1 1 1 1 1 1 1 1 1 1 1 1 1 1 1 1 1 1 1 1 1 1 1 1 1 1 1 1 1 1 1 1 1 1 1 1 0.7v-1-1-1-1-1-1-1-1-1-1-1-1-1-1-1-1-1-1-1-1-1-1-1-1-1-1-1-1-1-1-1-1-1-1-1-1-1-1-1-1-1-1-1-1-1-0.6h-1-1-1-1-1-1-1-1-1-1-1-1-1-1-1-1-1-1-1-1-1-1-1-1-1-1-1-1-1-1-1-1-1-1-1-1-1-1-1-1-1-1-1-1-1-0.7v1 1 1 1 1 1 1 1 1 1 1 1 1 1 1 1 1 1 1 1 1 1 1 1 1 1 1 1 1 1 1 1 1 1 1 1 1 1 1 1 1 1 1 1 1z"/>
			<path id="Layer" class="s4" d="m497.9 353.3h1 1 1 1 1 1 1 1 1 1 1 1 1 1 1 1 1 1 1 1 1 1 1 1 1 1 1 1 1 1 1 1 1 1 1 1 1 1 1 1 1 1 1 1 1 0.6v-1-1-1-1-1-1-1-1-1-1-1-1-1-1-1-1-1-1-1-1-1-1-1-1-1-1-1-1-1-1-1-1-1-1-1-1-1-1-1-1-1-1-1-1-1-0.6h-1-1-1-1-1-1-1-1-1-1-1-1-1-1-1-1-1-1-1-1-1-1-1-1-1-1-1-1-1-1-1-1-1-1-1-1-1-1-1-1-1-1-1-1-1-0.6v1 1 1 1 1 1 1 1 1 1 1 1 1 1 1 1 1 1 1 1 1 1 1 1 1 1 1 1 1 1 1 1 1 1 1 1 1 1 1 1 1 1 1 1 1z"/>
			<path id="Layer" class="s5" d="m904.2 451.3h1 1 1 1 1 1 1 1 1 1 1 1 1 1 1 1 1 1 1 1 1 1 1 1 1 1 1 1 1 1 1 1 1 1 1 1 1 1 1 1 1 1 1 1 1 0.7v-1-1-1-1-1-1-1-1-1-1-1-1-1-1-1-1-1-1-1-1-1-1-1-1-1-1-1-1-1-1-1-1-1-1-1-1-1-1-1-1-1-1-1-1-1-0.6h-1-1-1-1-1-1-1-1-1-1-1-1-1-1-1-1-1-1-1-1-1-1-1-1-1-1-1-1-1-1-1-1-1-1-1-1-1-1-1-1-1-1-1-1-1-0.7v1 1 1 1 1 1 1 1 1 1 1 1 1 1 1 1 1 1 1 1 1 1 1 1 1 1 1 1 1 1 1 1 1 1 1 1 1 1 1 1 1 1 1 1 1z"/>
			<path id="Layer" class="s5" d="m931.2 394.9h1 1 1 1 1 1 1 1 1 1 1 1 1 1 1 1 1 1 1 1 1 1 1 1 1 1 1 1 1 1 1 1 1 1 1 1 1 1 1 1 1 1 1 1 1 0.7v-1-1-1-1-1-1-1-1-1-1-1-1-1-1-1-1-1-1-1-1-1-1-1-1-1-1-1-1-1-1-1-1-1-1-1-1-1-1-1-1-1-1-1-1-1-0.6h-1-1-1-1-1-1-1-1-1-1-1-1-1-1-1-1-1-1-1-1-1-1-1-1-1-1-1-1-1-1-1-1-1-1-1-1-1-1-1-1-1-1-1-1-1-0.7v1 1 1 1 1 1 1 1 1 1 1 1 1 1 1 1 1 1 1 1 1 1 1 1 1 1 1 1 1 1 1 1 1 1 1 1 1 1 1 1 1 1 1 1 1z"/>
			<path id="Layer copy" class="s5" d="m877.2 394.9h1 1 1 1 1 1 1 1 1 1 1 1 1 1 1 1 1 1 1 1 1 1 1 1 1 1 1 1 1 1 1 1 1 1 1 1 1 1 1 1 1 1 1 1 1 0.7v-1-1-1-1-1-1-1-1-1-1-1-1-1-1-1-1-1-1-1-1-1-1-1-1-1-1-1-1-1-1-1-1-1-1-1-1-1-1-1-1-1-1-1-1-1-0.6h-1-1-1-1-1-1-1-1-1-1-1-1-1-1-1-1-1-1-1-1-1-1-1-1-1-1-1-1-1-1-1-1-1-1-1-1-1-1-1-1-1-1-1-1-1-0.7v1 1 1 1 1 1 1 1 1 1 1 1 1 1 1 1 1 1 1 1 1 1 1 1 1 1 1 1 1 1 1 1 1 1 1 1 1 1 1 1 1 1 1 1 1z"/>
			<path id="Layer copy 2" class="s5" d="m819.2 435.9h1 1 1 1 1 1 1 1 1 1 1 1 1 1 1 1 1 1 1 1 1 1 1 1 1 1 1 1 1 1 1 1 1 1 1 1 1 1 1 1 1 1 1 1 1 0.7v-1-1-1-1-1-1-1-1-1-1-1-1-1-1-1-1-1-1-1-1-1-1-1-1-1-1-1-1-1-1-1-1-1-1-1-1-1-1-1-1-1-1-1-1-1-0.6h-1-1-1-1-1-1-1-1-1-1-1-1-1-1-1-1-1-1-1-1-1-1-1-1-1-1-1-1-1-1-1-1-1-1-1-1-1-1-1-1-1-1-1-1-1-0.7v1 1 1 1 1 1 1 1 1 1 1 1 1 1 1 1 1 1 1 1 1 1 1 1 1 1 1 1 1 1 1 1 1 1 1 1 1 1 1 1 1 1 1 1 1z"/>
			<path id="Layer" class="s5" d="m990.6 498.4h1 1 1 1 1 1 1 1 1 1 1 1 1 1 1 1 1 1 1 1 1 1 1 1 1 1 1 1 1 1 1 1 1 1 1 1 1 1 1 1 1 1 1 1 1 0.6v-1-1-1-1-1-1-1-1-1-1-1-1-1-1-1-1-1-1-1-1-1-1-1-1-1-1-1-1-1-1-1-1-1-1-1-1-1-1-1-1-1-1-1-1-1-0.6h-1-1-1-1-1-1-1-1-1-1-1-1-1-1-1-1-1-1-1-1-1-1-1-1-1-1-1-1-1-1-1-1-1-1-1-1-1-1-1-1-1-1-1-1-1-0.6v1 1 1 1 1 1 1 1 1 1 1 1 1 1 1 1 1 1 1 1 1 1 1 1 1 1 1 1 1 1 1 1 1 1 1 1 1 1 1 1 1 1 1 1 1z"/>
			<path id="Layer" class="s5" d="m819.8 498.4h1 1 1 1 1 1 1 1 1 1 1 1 1 1 1 1 1 1 1 1 1 1 1 1 1 1 1 1 1 1 1 1 1 1 1 1 1 1 1 1 1 1 1 1 1 0.7v-1-1-1-1-1-1-1-1-1-1-1-1-1-1-1-1-1-1-1-1-1-1-1-1-1-1-1-1-1-1-1-1-1-1-1-1-1-1-1-1-1-1-1-1-1-0.6h-1-1-1-1-1-1-1-1-1-1-1-1-1-1-1-1-1-1-1-1-1-1-1-1-1-1-1-1-1-1-1-1-1-1-1-1-1-1-1-1-1-1-1-1-1-0.7v1 1 1 1 1 1 1 1 1 1 1 1 1 1 1 1 1 1 1 1 1 1 1 1 1 1 1 1 1 1 1 1 1 1 1 1 1 1 1 1 1 1 1 1 1z"/>
			<path id="Layer" class="s5" d="m875.2 531.5h1 1 1 1 1 1 1 1 1 1 1 1 1 1 1 1 1 1 1 1 1 1 1 1 1 1 1 1 1 1 1 1 1 1 1 1 1 1 1 1 1 1 1 1 1 0.6v-1-1-1-1-1-1-1-1-1-1-1-1-1-1-1-1-1-1-1-1-1-1-1-1-1-1-1-1-1-1-1-1-1-1-1-1-1-1-1-1-1-1-1-1-1-0.6h-1-1-1-1-1-1-1-1-1-1-1-1-1-1-1-1-1-1-1-1-1-1-1-1-1-1-1-1-1-1-1-1-1-1-1-1-1-1-1-1-1-1-1-1-1-0.6v1 1 1 1 1 1 1 1 1 1 1 1 1 1 1 1 1 1 1 1 1 1 1 1 1 1 1 1 1 1 1 1 1 1 1 1 1 1 1 1 1 1 1 1 1z"/>
			<path id="Layer" class="s5" d="m935.1 531.5h1 1 1 1 1 1 1 1 1 1 1 1 1 1 1 1 1 1 1 1 1 1 1 1 1 1 1 1 1 1 1 1 1 1 1 1 1 1 1 1 1 1 1 1 1 0.6v-1-1-1-1-1-1-1-1-1-1-1-1-1-1-1-1-1-1-1-1-1-1-1-1-1-1-1-1-1-1-1-1-1-1-1-1-1-1-1-1-1-1-1-1-1-0.6h-1-1-1-1-1-1-1-1-1-1-1-1-1-1-1-1-1-1-1-1-1-1-1-1-1-1-1-1-1-1-1-1-1-1-1-1-1-1-1-1-1-1-1-1-1-0.6v1 1 1 1 1 1 1 1 1 1 1 1 1 1 1 1 1 1 1 1 1 1 1 1 1 1 1 1 1 1 1 1 1 1 1 1 1 1 1 1 1 1 1 1 1z"/>
			<path id="Layer" class="s5" d="m875.2 586.4h1 1 1 1 1 1 1 1 1 1 1 1 1 1 1 1 1 1 1 1 1 1 1 1 1 1 1 1 1 1 1 1 1 1 1 1 1 1 1 1 1 1 1 1 1 0.6v-1-1-1-1-1-1-1-1-1-1-1-1-1-1-1-1-1-1-1-1-1-1-1-1-1-1-1-1-1-1-1-1-1-1-1-1-1-1-1-1-1-1-1-1-1-0.6h-1-1-1-1-1-1-1-1-1-1-1-1-1-1-1-1-1-1-1-1-1-1-1-1-1-1-1-1-1-1-1-1-1-1-1-1-1-1-1-1-1-1-1-1-1-0.6v1 1 1 1 1 1 1 1 1 1 1 1 1 1 1 1 1 1 1 1 1 1 1 1 1 1 1 1 1 1 1 1 1 1 1 1 1 1 1 1 1 1 1 1 1z"/>
			<path id="Layer" class="s5" d="m875.2 636.8h1 1 1 1 1 1 1 1 1 1 1 1 1 1 1 1 1 1 1 1 1 1 1 1 1 1 1 1 1 1 1 1 1 1 1 1 1 1 1 1 1 1 1 1 1 0.6v-1-1-1-1-1-1-1-1-1-1-1-1-1-1-1-1-1-1-1-1-1-1-1-1-1-1-1-1-1-1-1-1-1-1-1-1-1-1-1-1-1-1-1-1-1-0.6h-1-1-1-1-1-1-1-1-1-1-1-1-1-1-1-1-1-1-1-1-1-1-1-1-1-1-1-1-1-1-1-1-1-1-1-1-1-1-1-1-1-1-1-1-1-0.6v1 1 1 1 1 1 1 1 1 1 1 1 1 1 1 1 1 1 1 1 1 1 1 1 1 1 1 1 1 1 1 1 1 1 1 1 1 1 1 1 1 1 1 1 1z"/>
			<path id="Layer" class="s4" d="m727.2 206.3h1 1 1 1 1 1 1 1 1 1 1 1 1 1 1 1 1 1 1 1 1 1 1 1 1 1 1 1 1 1 1 1 1 1 1 1 1 1 1 1 1 1 1 1 1 0.7v-1-1-1-1-1-1-1-1-1-1-1-1-1-1-1-1-1-1-1-1-1-1-1-1-1-1-1-1-1-1-1-1-1-1-1-1-1-1-1-1-1-1-1-1-1-0.6h-1-1-1-1-1-1-1-1-1-1-1-1-1-1-1-1-1-1-1-1-1-1-1-1-1-1-1-1-1-1-1-1-1-1-1-1-1-1-1-1-1-1-1-1-1-0.7v1 1 1 1 1 1 1 1 1 1 1 1 1 1 1 1 1 1 1 1 1 1 1 1 1 1 1 1 1 1 1 1 1 1 1 1 1 1 1 1 1 1 1 1 1z"/>
			<path id="Layer" class="s6" d="m724.8 462.7h1 1 1 1 1 1 1 1 1 1 1 1 1 1 1 1 1 1 1 1 1 1 1 1 1 1 1 1 1 1 1 1 1 1 1 1 1 1 1 1 1 1 1 1 1 0.6v-1-1-1-1-1-1-1-1-1-1-1-1-1-1-1-1-1-1-1-1-1-1-1-1-1-1-1-1-1-1-1-1-1-1-1-1-1-1-1-1-1-1-1-1-1-0.6h-1-1-1-1-1-1-1-1-1-1-1-1-1-1-1-1-1-1-1-1-1-1-1-1-1-1-1-1-1-1-1-1-1-1-1-1-1-1-1-1-1-1-1-1-1-0.6v1 1 1 1 1 1 1 1 1 1 1 1 1 1 1 1 1 1 1 1 1 1 1 1 1 1 1 1 1 1 1 1 1 1 1 1 1 1 1 1 1 1 1 1 1z"/>
			<path id="Layer" class="s6" d="m724.8 397.1h1 1 1 1 1 1 1 1 1 1 1 1 1 1 1 1 1 1 1 1 1 1 1 1 1 1 1 1 1 1 1 1 1 1 1 1 1 1 1 1 1 1 1 1 1 0.6v-1-1-1-1-1-1-1-1-1-1-1-1-1-1-1-1-1-1-1-1-1-1-1-1-1-1-1-1-1-1-1-1-1-1-1-1-1-1-1-1-1-1-1-1-1-0.6h-1-1-1-1-1-1-1-1-1-1-1-1-1-1-1-1-1-1-1-1-1-1-1-1-1-1-1-1-1-1-1-1-1-1-1-1-1-1-1-1-1-1-1-1-1-0.6v1 1 1 1 1 1 1 1 1 1 1 1 1 1 1 1 1 1 1 1 1 1 1 1 1 1 1 1 1 1 1 1 1 1 1 1 1 1 1 1 1 1 1 1 1z"/>
		</g>
		<path id="Shape 1" class="s7" d="m59.2 373.1h1v19h-1z"/>
		<path id="Shape 2" class="s7" d="m82.9 349.2v-1h14.7v1z"/>
		<path id="Shape 3" class="s7" d="m144.2 400.6v-1h42.7v1z"/>
		<path id="Shape 4" class="s7" d="m143.4 348.4l0.7-0.7 42.6 43.3-0.7 0.7z"/>
		<path id="Shape 5" class="s7" d="m144.5 455.2l-0.7-0.7 42-42.8 0.7 0.7z"/>
		<path id="Shape 6" class="s7" d="m143.8 506l0.4-0.9 42.9 18.1-0.4 0.9z"/>
		<path id="Shape 7" class="s7" d="m144 559l-0.5-0.9 42.8-25.2 0.5 0.9z"/>
		<path id="Shape 8" class="s7" d="m208.8 356.3h1v21.5h-1z"/>
		<path id="Shape 9" class="s7" d="m210.1 424.4h1v18.7h-1z"/>
		<path id="Shape 10" class="s7" d="m209.8 489.3h1v15.6h-1z"/>
		<path id="Shape 11" class="s7" d="m290.3 416.4h1v25.2h-1z"/>
		<path id="Shape 12" class="s7" d="m233.1 466.3v-1h35.2v1z"/>
		<path id="Shape 13" class="s7" d="m373.7 416l0.6 0.8-59.4 40.1-0.6-0.8z"/>
		<path id="Shape 14" class="s7" d="m343.3 546.6l-0.8 0.7-51.1-58.4 0.8-0.6z"/>
		<path id="Shape 15" class="s7" d="m239.4 695.4l0.1-1 53.3 2.3-0.1 1z"/>
		<path id="Shape 16" class="s7" d="m239.8 714.4l-0.2-1 52.8-13.8 0.2 0.9z"/>
		<path id="Shape 17" class="s7" d="m239.1 675.1l0.3-0.9 53.1 18.5-0.4 0.9z"/>
		<path id="Shape 18" class="s7" d="m239.2 657l0.5-0.8 53.1 32.3-0.5 0.8z"/>
		<path id="Shape 19" class="s7" d="m238.7 637.6l0.6-0.8 54 48.4-0.7 0.7z"/>
		<path id="Shape 20" class="s7" d="m238.6 618.8l0.8-0.7 53.7 62.5-0.7 0.6z"/>
		<path id="Shape 21" class="s7" d="m240.1 733.3l-0.4-0.9 52.6-29 0.5 0.9z"/>
		<path id="Shape 22" class="s7" d="m240.4 750.6l-0.6-0.8 52-43 0.6 0.8z"/>
		<path id="Shape 23" class="s7" d="m240.1 770.6l-0.8-0.6 52.4-59.1 0.7 0.6z"/>
		<path id="Shape 24" class="s7" d="m240.5 788.4l-0.8-0.6 52.6-72.7 0.8 0.6z"/>
		<path id="Shape 25" class="s7" d="m240.3 808.9l-0.8-0.5 52.4-89 0.8 0.5z"/>
		<path id="Shape 26" class="s7" d="m407 851l0.4 0.9-33.9 15.4-0.4-0.9z"/>
		<path id="Shape 27" class="s7" d="m406.2 907.2l-0.6 0.8-32.3-27 0.6-0.8z"/>
		<path id="Shape 28" class="s7" d="m281.5 993.1h1v16.7h-1z"/>
		<path id="Shape 29" class="s7" d="m223.5 992.8h1v16.7h-1z"/>
		<path id="Shape 30" class="s7" d="m169.9 830.9l0.7-0.7 29.7 34.7-0.8 0.7z"/>
		<path id="Shape 31" class="s7" d="m170.6 880l-0.2-1 28.9-4.2 0.1 1z"/>
		<path id="Shape 32" class="s7" d="m160.8 946.9l-0.7-0.7 48.7-48.8 0.7 0.7z"/>
		<path id="Shape 33" class="s7" d="m224.2 946.5h-1v-48.2h1z"/>
		<path id="Shape 34" class="s7" d="m233.2 898.1l0.7-0.7 47.4 47.7-0.7 0.7z"/>
		<path id="Shape 35" class="s7" d="m224.1 852.3l-0.8-0.6 85.8-128.9 0.8 0.5z"/>
		<path id="Shape 36" class="s7" d="m349.7 850.8l-1 0.2-28.6-129.4 1-0.2z"/>
		<path id="Shape 37" class="s7" d="m338.4 693.8l0.1-1 142.8 13.8-0.1 1z"/>
		<path id="Shape 38" class="s7" d="m338.8 703.4l0.5-0.9 141.3 76.2-0.5 0.9z"/>
		<path id="Shape 39" class="s7" d="m317.3 675.5l-0.6-0.8 197.5-149.1 0.6 0.8z"/>
		<path id="Shape 40" class="s7" d="m365.8 573.7l0.9-0.5 115.2 203.4-0.9 0.5z"/>
		<path id="Shape 41" class="s7" d="m378.1 573.3l0.8-0.6 103.9 132.6-0.8 0.6z"/>
		<path id="Shape 42" class="s7" d="m389.5 570l0.7-0.7 92 82.6-0.6 0.7z"/>
		<path id="Shape 43" class="s7" d="m389.2 560.7l0.4-0.9 93 44.3-0.4 0.9z"/>
		<path id="Shape 44" class="s7" d="m452.4 292.1h1v14.7h-1z"/>
		<path id="Shape 45" class="s7" d="m496.7 329.6v1h-20.2v-1z"/>
		<path id="Shape 46" class="s7" d="m476.7 273.2l0.1-1 88.2 15.1-0.2 1z"/>
		<path id="Shape 47" class="s7" d="m476 219.5l0.5-0.8 88.7 59.4-0.6 0.8z"/>
		<path id="Shape 48" class="s7" d="m475.9 171.2l0.7-0.7 88.7 97.4-0.8 0.7z"/>
		<path id="Shape 49" class="s7" d="m588.7 227.9h1v27.7h-1z"/>
		<path id="Shape 50" class="s7" d="m544.8 332.4l-0.7-0.7 32.6-29.7 0.7 0.7z"/>
		<path id="Shape 51" class="s7" d="m452 352.8l0.9 0.4-83.3 173.9-0.9-0.5z"/>
		<path id="Shape 52" class="s7" d="m660 240.6l0.6 0.8-48.2 37-0.6-0.8z"/>
		<path id="Shape 53" class="s7" d="m682.7 265.4h1v16.5h-1z"/>
		<path id="Shape 54" class="s7" d="m588.7 77.9h1v104.2h-1z"/>
		<path id="Shape 55" class="s7" d="m659.1 95.4l0.9 0.4-47.8 102.8-0.9-0.4z"/>
		<path id="Shape 56" class="s7" d="m617.9 126.9l0.9 0.3-18.3 56.1-0.9-0.3z"/>
		<path id="Shape 57" class="s7" d="m524.3 96.6l0.9-0.3 40.1 100.7-0.9 0.4z"/>
		<path id="Shape 58" class="s7" d="m558.6 127.3l1-0.4 22.3 55.2-0.9 0.4z"/>
		<path id="Shape 59" class="s7" d="m507.8 155.8l0.7-0.7 57 56.1-0.7 0.7z"/>
		<path id="Shape 60" class="s7" d="m660 133.1l0.9 0.5-49 77.3-0.8-0.5z"/>
		<path id="Shape 61" class="s7" d="m659.6 183.9l0.6 0.8-47.6 33.5-0.5-0.8z"/>
		<path id="Shape 62" class="s7" d="m746.8 397.5h1v19h-1z"/>
		<path id="Shape 107" class="s7" d="m770.4 439.8l-0.5-0.8 48.8-26.3 0.4 0.9z"/>
		<path id="Shape 108" class="s7" d="m864.6 414.9l0.2-1 39.6 9.2-0.2 1z"/>
		<path id="Shape 109" class="s7" d="m952 394.6l0.5 0.9-16.4 10-0.5-0.9z"/>
		<path id="Shape 110" class="s7" d="m900.1 395.1l0.5-0.9 21 10.4-0.4 0.9z"/>
		<path id="Shape 64" class="s7" d="m898.3 532.4h1v9.3h-1z"/>
		<path id="Shape 65" class="s7" d="m899.1 587.6h1v4.2h-1z"/>
		<path id="Shape 66" class="s7" d="m924.6 451.5l0.8 0.5-21.1 33.6-0.9-0.6z"/>
		<path id="Shape 67" class="s7" d="m930.5 451.7l0.9-0.4 16 32.4-0.9 0.4z"/>
		<path id="Shape 68" class="s7" d="m949.8 444l0.6-0.8 39.7 32.4-0.6 0.8z"/>
		<path id="Shape 69" class="s7" d="m904.4 441.2l0.6 0.8-37.7 32.1-0.7-0.7z"/>
		<path id="Shape 72" class="s7" d="m819.7 481.6l0.6 0.7-106.5 89.9-0.6-0.7z"/>
		<path id="Shape 73" class="s7" d="m874.6 507.4l0.4 0.9-161.9 70.8-0.4-1z"/>
		<path id="Shape 74" class="s7" d="m584.2 301l1 0.2-49 203.9-0.9-0.3z"/>
		<path id="Shape 75" class="s7" d="m315.1 467.5l0.2-1 200.7 46.9-0.2 1z"/>
		<path id="Shape 76" class="s7" d="m506.1 484.5l0.7-0.7 21.3 20.7-0.7 0.7z"/>
		<path id="Shape 77" class="s7" d="m584.9 474.9l0.7 0.8-35.8 30.1-0.6-0.8z"/>
		<path id="Shape 78" class="s7" d="m611.4 483.7l0.6 0.8-50.3 32.7-0.6-0.8z"/>
		<path id="Shape 111" class="s7" d="m666.6 549.8l0.5-0.9 19.9 13.4-0.6 0.8z"/>
		<path id="Shape 80" class="s7" d="m561.2 532.8l0.4-0.9 104.7 46.1-0.4 0.9z"/>
		<path id="Shape 81" class="s7" d="m712.3 582.8l0.1-1 85.5 10.4-0.1 1z"/>
		<path id="Shape 82" class="s7" d="m711.9 587.9l0.5-0.8 86 56.6-0.5 0.8z"/>
		<path id="Shape 83" class="s7" d="m712 595.1l0.8-0.6 85.5 94.1-0.8 0.6z"/>
		<path id="Shape 84" class="s7" d="m711.7 606.8l0.8-0.6 85.8 122-0.8 0.6z"/>
		<path id="Shape 85" class="s7" d="m764 766.8h1v6.6h-1z"/>
		<path id="Shape 86" class="s7" d="m763.2 819.5h1v7.4h-1z"/>
		<path id="Shape 87" class="s7" d="m702 766.8h1v6.9h-1z"/>
		<path id="Shape 88" class="s7" d="m701.2 819.8h1v6.8h-1z"/>
		<path id="Shape 89" class="s7" d="m574.5 820.3h1v5.7h-1z"/>
		<path id="Shape 90" class="s7" d="m765 719.7l-0.9 0.5-58.4-110.6 0.9-0.4z"/>
		<path id="Shape 91" class="s7" d="m696 609.2l1-0.1 5.5 110.5-1 0.1z"/>
		<path id="Shape 92" class="s7" d="m577 774.1l-0.3-1 100.1-25.5 0.3 1z"/>
		<path id="Shape 93" class="s7" d="m639.6 774.1l-0.4-0.9 38.3-18 0.4 0.9z"/>
		<path id="Shape 94" class="s7" d="m601.9 691.5h1v16.7h-1z"/>
		<path id="Shape 95" class="s7" d="m603.4 645l-0.5-0.8 62.6-41.7 0.5 0.8z"/>
		<path id="Shape 96" class="s7" d="m390.6 549.6l0.2-1 275.4 37.4-0.2 1z"/>
		<path id="Shape 97" class="s7" d="m504.4 735.6h1v20.5h-1z"/>
		<path id="Shape 98" class="s7" d="m504.7 676.8h1v12.3h-1z"/>
		<path id="Shape 99" class="s7" d="m505.6 621.6h1v9h-1z"/>
		<path id="Shape 100" class="s7" d="m527.9 653.3l0.3-1 51.6 14.4-0.3 1z"/>
		<path id="Shape 101" class="s7" d="m527.7 599.7l0.7-0.6 51.6 58.8-0.7 0.6z"/>
		<path id="Shape 102" class="s7" d="m528.3 714.1l-0.6-0.8 50.4-39.6 0.6 0.8z"/>
		<path id="Shape 103" class="s7" d="m528.8 780.2l-0.9-0.4 50.7-98.7 0.9 0.4z"/>
		<path id="Shape 104" class="s7" d="m625.6 732.4l0.2-1 51.2 6.3-0.1 1z"/>
		<path id="Shape 105" class="s7" d="m748 462.8l0.9 0.5-45.5 100.2-0.9-0.4z"/>
		<path id="Shape 106" class="s8" d="m903.5 945c-8 0-14.5-6.5-14.5-14.5 0-8 6.5-14.5 14.5-14.5 8 0 14.5 6.5 14.5 14.5 0 8-6.5 14.5-14.5 14.5z"/>
		<path id="Menu" fill-rule="evenodd" class="s7" d="m927.4 875v-17.5h3.5l4.4 11.9 4.5-11.9h3.6v17.5h-2.3v-15.4l-4.6 12h-2.3l-4.5-12v15.4zm31.8-7.1v1.1h-9.9q0.1 2.2 1.3 3.4 1.2 1.1 3.4 1.1 1.2 0 2.4-0.3 1.1-0.3 2.3-0.9v2q-1.2 0.5-2.4 0.8-1.2 0.2-2.5 0.2-3.1 0-4.9-1.8-1.9-1.8-1.9-4.9 0-3.3 1.8-5.1 1.7-1.9 4.7-1.9 2.6 0 4.1 1.7 1.6 1.7 1.6 4.6zm-9.9-0.6h7.7q0-1.8-1-2.9-0.9-1-2.5-1-1.8 0-2.9 1-1.1 1-1.3 2.9zm24.3-0.2v7.9h-2.1v-7.9q0-1.8-0.7-2.7-0.8-1-2.2-1-1.8 0-2.8 1.1-1 1.2-1 3.1v7.4h-2.2v-13.1h2.2v2q0.8-1.2 1.8-1.8 1.1-0.5 2.5-0.5 2.2 0 3.4 1.4 1.1 1.4 1.1 4.1zm4.1 2.7v-7.9h2.2v7.8q0 1.9 0.7 2.8 0.7 1 2.2 1 1.7 0 2.7-1.1 1.1-1.2 1.1-3.1v-7.4h2.1v13.1h-2.1v-2q-0.8 1.2-1.9 1.8-1 0.5-2.4 0.5-2.2 0-3.4-1.4-1.2-1.4-1.2-4.1z"/>
		<path id="Gra" fill-rule="evenodd" class="s7" d="m940.3 904.5v-4.7h-3.9v-1.9h6.2v7.5q-1.3 0.9-3 1.4-1.6 0.5-3.5 0.5-4.1 0-6.4-2.4-2.4-2.4-2.4-6.6 0-4.3 2.4-6.7 2.3-2.4 6.4-2.4 1.7 0 3.2 0.4 1.6 0.4 2.9 1.3v2.5q-1.3-1.1-2.8-1.7-1.5-0.6-3.1-0.6-3.2 0-4.9 1.8-1.6 1.8-1.6 5.4 0 3.5 1.6 5.3 1.7 1.8 4.9 1.8 1.2 0 2.2-0.2 1-0.2 1.8-0.7zm14.2-10.8v2.2q-0.4-0.2-0.8-0.3-0.5-0.1-1-0.1-1.8 0-2.8 1.2-1 1.2-1 3.4v6.9h-2.1v-13.1h2.1v2q0.7-1.2 1.8-1.8 1.1-0.5 2.7-0.5 0.2 0 0.5 0 0.2 0 0.6 0.1zm12.5 5.8v7.5h-2.2v-2q-0.7 1.2-1.8 1.8-1.1 0.5-2.7 0.5-2 0-3.2-1.1-1.2-1.1-1.2-3 0-2.3 1.5-3.4 1.5-1.1 4.4-1.1h3v-0.2q0-1.5-0.9-2.3-1-0.8-2.8-0.8-1.1 0-2.2 0.2-1 0.3-2 0.8v-1.9q1.2-0.5 2.3-0.7 1.1-0.3 2.1-0.3 2.9 0 4.3 1.5 1.4 1.5 1.4 4.5zm-2.2 0.9h-2.1q-2.6 0-3.6 0.6-1 0.6-1 2 0 1.2 0.7 1.9 0.8 0.6 2.1 0.6 1.8 0 2.8-1.2 1.1-1.3 1.1-3.4z"/>
		<path id="Stwory" fill-rule="evenodd" class="s7" d="m938.8 951.1v2.3q-1.3-0.7-2.5-1-1.2-0.3-2.3-0.3-1.9 0-3 0.8-1 0.7-1 2.1 0 1.2 0.7 1.7 0.7 0.6 2.6 1l1.4 0.3q2.7 0.5 3.9 1.8 1.3 1.2 1.3 3.4 0 2.5-1.7 3.8-1.7 1.3-5 1.3-1.2 0-2.7-0.2-1.3-0.3-2.8-0.9v-2.4q1.4 0.8 2.8 1.2 1.4 0.4 2.7 0.4 2 0 3.1-0.8 1.1-0.8 1.1-2.3 0-1.2-0.8-2-0.8-0.7-2.6-1.1l-1.4-0.2q-2.7-0.6-3.8-1.7-1.2-1.1-1.2-3.1 0-2.3 1.6-3.7 1.7-1.3 4.5-1.3 1.3 0 2.5 0.2 1.3 0.2 2.6 0.7zm4.7 0h2.1v3.8h4.5v1.7h-4.5v7.1q0 1.6 0.5 2 0.4 0.5 1.8 0.5h2.2v1.8h-2.2q-2.5 0-3.5-0.9-0.9-1-0.9-3.4v-7.1h-1.6v-1.7h1.6zm11.6 16.8l-3.4-13.1h2.1l2.7 10.2 2.7-10.2h2.5l2.7 10.2 2.7-10.2h2.2l-3.5 13.1h-2.5l-2.8-10.7-2.9 10.7zm22.6-13.4q2.8 0 4.4 1.8 1.6 1.8 1.6 5.1 0 3.2-1.6 5-1.6 1.9-4.4 1.9-2.9 0-4.5-1.9-1.6-1.8-1.6-5 0-3.3 1.6-5.1 1.6-1.8 4.5-1.8zm0 1.8q-1.8 0-2.8 1.4-1 1.3-1 3.7 0 2.3 1 3.7 1 1.3 2.8 1.3 1.7 0 2.7-1.3 1-1.4 1-3.7 0-2.4-1-3.7-1-1.4-2.7-1.4zm17.2-1.7v2.2q-0.4-0.2-0.8-0.3-0.5-0.1-1-0.1-1.8 0-2.8 1.2-1 1.2-1 3.4v6.9h-2.1v-13.1h2.1v2q0.7-1.2 1.8-1.7 1.1-0.6 2.7-0.6 0.2 0 0.5 0 0.2 0 0.6 0.1zm13.5 0.2l-5.8 14.3q-0.9 2.4-1.8 3.1-0.9 0.7-2.3 0.7h-1.7v-1.8h1.2q0.9 0 1.4-0.4 0.5-0.4 1.1-2l0.4-1-5.3-12.9h2.3l4.1 10.3 4.1-10.3z"/>
		<path id="Obiekty" fill-rule="evenodd" class="s7" d="m935.5 983.2q3.6 0 5.8 2.5 2.2 2.4 2.2 6.6 0 4.1-2.2 6.6-2.2 2.4-5.8 2.4-3.7 0-5.9-2.4-2.3-2.5-2.3-6.6 0-4.2 2.3-6.6 2.2-2.5 5.9-2.5zm0 1.9q-2.6 0-4.1 1.9-1.6 2-1.6 5.3 0 3.3 1.6 5.2 1.5 1.9 4.1 1.9 2.5 0 4-1.9 1.5-1.9 1.5-5.2 0-3.3-1.5-5.3-1.5-1.9-4-1.9zm13.7-2.3v7.1q0.7-1.2 1.7-1.8 1.1-0.5 2.5-0.5 2.4 0 3.9 1.9 1.5 1.9 1.5 4.9 0 3.1-1.5 5-1.5 1.9-3.9 1.9-1.4 0-2.5-0.5-1-0.6-1.7-1.8v2h-2.1v-18.2zm7.4 11.6q0-2.3-1-3.7-1-1.3-2.7-1.3-1.7 0-2.7 1.3-1 1.4-1 3.7 0 2.4 1 3.8 1 1.3 2.7 1.3 1.7 0 2.7-1.3 1-1.4 1-3.8zm5.7 6.6v-13.1h2.2v13.1zm0-15.5v-2.7h2.1v2.7zm17.9 8.4v1.1h-9.9q0.2 2.2 1.3 3.4 1.3 1.1 3.4 1.1 1.2 0 2.4-0.3 1.2-0.3 2.3-0.9v2q-1.1 0.5-2.4 0.8-1.2 0.2-2.4 0.2-3.2 0-5-1.8-1.8-1.8-1.8-4.9 0-3.3 1.7-5.1 1.7-1.9 4.7-1.9 2.6 0 4.2 1.7 1.5 1.7 1.5 4.6zm-9.8-0.6h7.7q-0.1-1.8-1-2.9-1-1-2.6-1-1.8 0-2.9 1-1.1 1-1.2 2.9zm13.3 7.7v-18.2h2.2v10.7l6.4-5.6h2.7l-6.9 6.1 7.2 7h-2.8l-6.6-6.4v6.4zm13.9-16.9h2.2v3.8h4.4v1.7h-4.4v7.1q0 1.6 0.4 2 0.4 0.5 1.8 0.5h2.2v1.8h-2.2q-2.5 0-3.5-0.9-0.9-1-0.9-3.4v-7.1h-1.6v-1.7h1.6zm20.7 3.7l-5.8 14.3q-0.9 2.4-1.8 3.1-0.8 0.7-2.3 0.7h-1.7v-1.8h1.2q0.9 0 1.4-0.4 0.5-0.4 1.1-2l0.4-1-5.3-12.9h2.3l4.1 10.3 4.1-10.3z"/>
		<path id="Przedmioty" fill-rule="evenodd" class="s7" d="m927.4 1033v-17.5h5.3q2.9 0 4.4 1.3 1.6 1.4 1.6 3.9 0 2.6-1.6 3.9-1.5 1.4-4.4 1.4h-3v7zm5.3-15.6h-3v6.6h3q1.7 0 2.6-0.8 0.9-0.9 0.9-2.5 0-1.5-0.9-2.4-0.9-0.9-2.6-0.9zm16.3 2.3v2.2q-0.4-0.2-0.8-0.3-0.4-0.1-0.9-0.1-1.9 0-2.9 1.2-0.9 1.2-0.9 3.4v6.9h-2.2v-13.1h2.2v2q0.6-1.2 1.7-1.8 1.1-0.5 2.7-0.5 0.2 0 0.5 0 0.2 0 0.6 0.1zm1.3 1.9v-1.7h10.3v1.9l-8.2 9.5h8.2v1.7h-10.6v-2l8.1-9.4zm24.8 4.3v1.1h-9.9q0.1 2.2 1.3 3.4 1.2 1.1 3.4 1.1 1.2 0 2.4-0.3 1.1-0.3 2.3-0.9v2q-1.2 0.5-2.4 0.8-1.2 0.2-2.5 0.2-3.1 0-4.9-1.8-1.9-1.8-1.9-4.9 0-3.3 1.8-5.1 1.7-1.9 4.7-1.9 2.6 0 4.1 1.7 1.6 1.7 1.6 4.6zm-9.9-0.6h7.7q0-1.8-1-2.9-0.9-1-2.5-1-1.8 0-2.9 1-1.1 1-1.3 2.9zm22.1-3.4v-7.1h2.1v18.2h-2.1v-2q-0.7 1.2-1.8 1.8-1 0.5-2.4 0.5-2.4 0-3.9-1.9-1.5-1.9-1.5-5 0-3 1.5-4.9 1.5-1.9 3.9-1.9 1.4 0 2.4 0.5 1.1 0.6 1.8 1.8zm-7.4 4.5q0 2.4 1 3.8 1 1.3 2.7 1.3 1.7 0 2.7-1.3 1-1.4 1-3.8 0-2.3-1-3.7-1-1.3-2.7-1.3-1.7 0-2.7 1.3-1 1.4-1 3.7zm24.2-4q0.8-1.5 1.9-2.1 1.1-0.7 2.7-0.7 2 0 3.1 1.4 1.1 1.4 1.1 4.1v7.9h-2.1v-7.9q0-1.8-0.7-2.8-0.7-0.9-2-0.9-1.7 0-2.7 1.1-1 1.2-1 3.1v7.4h-2.1v-7.9q0-1.8-0.7-2.8-0.7-0.9-2.1-0.9-1.6 0-2.6 1.2-1 1.1-1 3v7.4h-2.1v-13.1h2.1v2q0.8-1.2 1.8-1.8 1-0.5 2.5-0.5 1.4 0 2.4 0.7 1 0.7 1.5 2.1zm13.1 10.6v-13.1h2.2v13.1zm0-15.5v-2.7h2.2v2.7zm11.7 2.1q2.8 0 4.4 1.8 1.6 1.8 1.6 5 0 3.3-1.6 5.1-1.6 1.8-4.4 1.8-2.8 0-4.4-1.8-1.6-1.8-1.6-5.1 0-3.2 1.6-5 1.6-1.8 4.4-1.8zm0 1.8q-1.7 0-2.7 1.3-1 1.4-1 3.7 0 2.4 1 3.8 1 1.3 2.7 1.3 1.7 0 2.7-1.3 1-1.4 1-3.8 0-2.3-1-3.6-1-1.4-2.7-1.4zm9.6-5.3h2.1v3.8h4.5v1.7h-4.5v7.1q0 1.6 0.5 2 0.4 0.5 1.8 0.5h2.2v1.8h-2.2q-2.5 0-3.5-0.9-0.9-1-0.9-3.4v-7.1h-1.6v-1.7h1.6zm20.6 3.7l-5.7 14.3q-0.9 2.4-1.8 3.1-0.9 0.7-2.3 0.7h-1.7v-1.8h1.2q0.9 0 1.4-0.4 0.5-0.4 1.1-2l0.4-1-5.3-12.9h2.3l4.1 10.3 4.1-10.3z"/>
		<path id="Pozostae" fill-rule="evenodd" class="s7" d="m926.4 1066v-17.5h5.3q2.9 0 4.4 1.3 1.6 1.4 1.6 3.9 0 2.6-1.6 3.9-1.5 1.4-4.4 1.4h-3v7zm5.3-15.6h-3v6.6h3q1.7 0 2.6-0.8 0.9-0.9 0.9-2.5 0-1.5-0.9-2.4-0.9-0.9-2.6-0.9zm13.3 2.2q2.8 0 4.4 1.8 1.7 1.8 1.7 5 0 3.3-1.7 5.1-1.6 1.8-4.4 1.8-2.8 0-4.4-1.8-1.6-1.8-1.6-5.1 0-3.2 1.6-5 1.6-1.8 4.4-1.8zm0 1.8q-1.7 0-2.7 1.3-1 1.4-1 3.7 0 2.4 1 3.8 1 1.3 2.7 1.3 1.8 0 2.8-1.3 1-1.4 1-3.8 0-2.3-1-3.6-1-1.4-2.8-1.4zm8.7 0.2v-1.7h10.2v1.9l-8.1 9.5h8.1v1.7h-10.5v-2l8.1-9.4zm18.6-2q2.8 0 4.4 1.8 1.7 1.8 1.7 5 0 3.3-1.7 5.1-1.6 1.8-4.4 1.8-2.8 0-4.4-1.8-1.6-1.8-1.6-5.1 0-3.2 1.6-5 1.6-1.8 4.4-1.8zm0 1.8q-1.7 0-2.7 1.3-1 1.4-1 3.7 0 2.4 1 3.8 1 1.3 2.7 1.3 1.8 0 2.8-1.3 1-1.4 1-3.8 0-2.3-1-3.6-1-1.4-2.8-1.4zm18-1.1v2q-0.9-0.5-1.9-0.7-1-0.2-2-0.2-1.6 0-2.5 0.5-0.8 0.4-0.8 1.4 0 0.8 0.6 1.2 0.6 0.4 2.3 0.8l0.8 0.2q2.3 0.5 3.2 1.4 1 0.9 1 2.5 0 1.8-1.5 2.9-1.4 1-3.9 1-1.1 0-2.2-0.2-1.2-0.2-2.4-0.6v-2.2q1.2 0.6 2.3 0.9 1.2 0.3 2.3 0.3 1.5 0 2.4-0.5 0.8-0.5 0.8-1.5 0-0.8-0.6-1.3-0.6-0.5-2.6-0.9l-0.8-0.2q-2-0.4-2.8-1.3-0.9-0.9-0.9-2.4 0-1.8 1.3-2.8 1.3-1 3.7-1 1.2 0 2.2 0.1 1.1 0.2 2 0.6zm4.1-4.2h2.2v3.8h4.4v1.7h-4.4v7.1q0 1.6 0.4 2 0.4 0.5 1.8 0.5h2.2v1.8h-2.2q-2.5 0-3.5-0.9-0.9-1-0.9-3.4v-7.1h-1.6v-1.7h1.6zm19.7 9.3v7.5h-2.1v-2q-0.8 1.2-1.9 1.8-1.1 0.5-2.7 0.5-2 0-3.2-1.1-1.2-1.1-1.2-3 0-2.2 1.5-3.4 1.5-1.1 4.4-1.1h3.1v-0.2q0-1.5-1-2.3-1-0.8-2.8-0.8-1.1 0-2.2 0.3-1 0.2-2 0.8v-2q1.2-0.5 2.3-0.7 1.1-0.2 2.1-0.2 2.9 0 4.3 1.4 1.4 1.5 1.4 4.5zm-2.1 0.9h-2.2q-2.6 0-3.6 0.6-1 0.6-1 2.1 0 1.1 0.7 1.8 0.8 0.7 2.1 0.7 1.8 0 2.9-1.3 1.1-1.3 1.1-3.4zm6.6-3.1v-8.5h2.2v7l1.4-1 0.9 1.2-2.3 1.7v9.3h-2.2v-7.8l-1.4 1-0.9-1.2zm18 2.6v1h-9.9q0.1 2.2 1.3 3.4 1.2 1.2 3.4 1.2 1.2 0 2.4-0.3 1.1-0.3 2.3-0.9v2q-1.2 0.5-2.4 0.7-1.2 0.3-2.5 0.3-3.1 0-4.9-1.8-1.9-1.9-1.9-5 0-3.2 1.8-5.1 1.7-1.9 4.7-1.9 2.6 0 4.1 1.7 1.6 1.7 1.6 4.7zm-9.9-0.7h7.7q0-1.7-1-2.8-0.9-1.1-2.5-1.1-1.8 0-2.9 1.1-1.1 1-1.3 2.8z"/>
		<path id="Gracz" fill-rule="evenodd" class="s7" d="m940.3 936.5v-4.7h-3.9v-1.9h6.2v7.5q-1.3 0.9-3 1.4-1.6 0.5-3.5 0.5-4.1 0-6.4-2.4-2.4-2.4-2.4-6.6 0-4.3 2.4-6.7 2.3-2.4 6.4-2.4 1.7 0 3.2 0.4 1.6 0.4 2.9 1.3v2.5q-1.3-1.1-2.8-1.7-1.5-0.6-3.1-0.6-3.2 0-4.9 1.8-1.6 1.8-1.6 5.4 0 3.5 1.6 5.3 1.7 1.8 4.9 1.8 1.2 0 2.2-0.2 1-0.2 1.8-0.7zm14.2-10.8v2.2q-0.4-0.2-0.8-0.3-0.5-0.1-1-0.1-1.8 0-2.8 1.2-1 1.2-1 3.4v6.9h-2.1v-13.1h2.1v2q0.7-1.2 1.8-1.8 1.1-0.5 2.7-0.5 0.2 0 0.5 0 0.2 0 0.6 0.1zm12.5 5.8v7.5h-2.2v-2q-0.7 1.2-1.8 1.8-1.1 0.5-2.7 0.5-2 0-3.2-1.1-1.2-1.1-1.2-3 0-2.3 1.5-3.4 1.5-1.1 4.4-1.1h3v-0.2q0-1.5-0.9-2.3-1-0.8-2.8-0.8-1.1 0-2.2 0.2-1 0.3-2 0.8v-1.9q1.2-0.5 2.3-0.7 1.1-0.3 2.1-0.3 2.9 0 4.3 1.5 1.4 1.5 1.4 4.5zm-2.2 0.9h-2.1q-2.6 0-3.6 0.6-1 0.6-1 2 0 1.2 0.7 1.9 0.8 0.6 2.1 0.6 1.8 0 2.8-1.2 1.1-1.3 1.1-3.4zm16.1-6v2q-0.9-0.5-1.9-0.8-0.9-0.2-1.8-0.2-2.1 0-3.3 1.3-1.1 1.3-1.1 3.7 0 2.4 1.1 3.8 1.2 1.3 3.3 1.3 0.9 0 1.8-0.3 1-0.2 1.9-0.7v2q-0.9 0.4-1.9 0.6-1 0.2-2 0.2-3 0-4.8-1.8-1.7-1.9-1.7-5.1 0-3.2 1.8-5 1.7-1.9 4.8-1.9 1 0 1.9 0.2 1 0.2 1.9 0.7zm2.8 1.2v-1.7h10.2v1.9l-8.1 9.5h8.1v1.7h-10.5v-2l8.1-9.4z"/>
		<path id="Shape 106 copy" class="s9" d="m903.5 976c-8 0-14.5-6.5-14.5-14.5 0-8 6.5-14.5 14.5-14.5 8 0 14.5 6.5 14.5 14.5 0 8-6.5 14.5-14.5 14.5z"/>
		<path id="Shape 106 copy 2" class="s10" d="m903.5 1008c-8 0-14.5-6.5-14.5-14.5 0-8 6.5-14.5 14.5-14.5 8 0 14.5 6.5 14.5 14.5 0 8-6.5 14.5-14.5 14.5z"/>
		<path id="Shape 106 copy 3" class="s11" d="m903.5 1040c-8 0-14.5-6.5-14.5-14.5 0-8 6.5-14.5 14.5-14.5 8 0 14.5 6.5 14.5 14.5 0 8-6.5 14.5-14.5 14.5z"/>
		<path id="Shape 106 copy 4" class="s12" d="m903.5 1072c-8 0-14.5-6.5-14.5-14.5 0-8 6.5-14.5 14.5-14.5 8 0 14.5 6.5 14.5 14.5 0 8-6.5 14.5-14.5 14.5z"/>
		<path id="Shape 106 copy 5" class="s13" d="m903.5 913c-8 0-14.5-6.5-14.5-14.5 0-8 6.5-14.5 14.5-14.5 8 0 14.5 6.5 14.5 14.5 0 8-6.5 14.5-14.5 14.5z"/>
		<path id="Shape 106 copy 6" class="s14" d="m903.5 881c-8 0-14.5-6.5-14.5-14.5 0-8 6.5-14.5 14.5-14.5 8 0 14.5 6.5 14.5 14.5 0 8-6.5 14.5-14.5 14.5z"/>
	</g>
</svg>